999
dxflib 2.0.4.8
  0
SECTION
  2
HEADER
  9
$ACADVER
  1
AC1015
  9
$HANDSEED
  5
FFFF
  9
$DIMASZ
 40
2.5
  9
$DIMGAP
 40
0.625
  9
$INSUNITS
 70
4
  9
$DIMEXO
 40
0.625
  9
$DIMTXT
 40
2.5
  9
$GRIDMODE
 70
0
  9
$DIMSTYLE
  2
Standard
  9
$PLIMMIN
 10
0.0
 20
0.0
  9
$PLIMMAX
 10
210.0
 20
297.0
  9
$DIMEXE
 40
1.25
  0
ENDSEC
  0
SECTION
  2
TABLES
  0
TABLE
  2
VPORT
  5
8
100
AcDbSymbolTable
 70
1
  0
VPORT
  5
30
100
AcDbSymbolTableRecord
100
AcDbViewportTableRecord
  2
*Active
 70
0
 10
0.0
 20
0.0
 11
1.0
 21
1.0
 12
286.3055555555554861
 22
148.5
 13
0.0
 23
0.0
 14
10.0
 24
10.0
 15
10.0
 25
10.0
 16
0.0
 26
0.0
 36
1.0
 17
0.0
 27
0.0
 37
0.0
 40
297.0
 41
1.92798353909465
 42
50.0
 43
0.0
 44
0.0
 50
0.0
 51
0.0
 71
0
 72
100
 73
1
 74
3
 75
1
 76
1
 77
0
 78
0
281
0
 65
1
110
0.0
120
0.0
130
0.0
111
1.0
121
0.0
131
0.0
112
0.0
122
1.0
132
0.0
 79
0
146
0.0
  0
ENDTAB
  0
TABLE
  2
LTYPE
  5
5
100
AcDbSymbolTable
 70
21
  0
LTYPE
  5
14
100
AcDbSymbolTableRecord
100
AcDbLinetypeTableRecord
  2
ByBlock
 70
0
  3

 72
65
 73
0
 40
0.0
  0
LTYPE
  5
15
100
AcDbSymbolTableRecord
100
AcDbLinetypeTableRecord
  2
ByLayer
 70
0
  3

 72
65
 73
0
 40
0.0
  0
LTYPE
  5
16
100
AcDbSymbolTableRecord
100
AcDbLinetypeTableRecord
  2
CONTINUOUS
 70
0
  3
Solid line
 72
65
 73
0
 40
0.0
  0
LTYPE
  5
31
100
AcDbSymbolTableRecord
100
AcDbLinetypeTableRecord
  2
DOT
 70
0
  3
Dot . . . . . . . . . . . . . . . . . . . . . .
 72
65
 73
2
 40
6.3499999999999996
 49
0.0
 74
0
 49
-6.3499999999999996
 74
0
  0
LTYPE
  5
32
100
AcDbSymbolTableRecord
100
AcDbLinetypeTableRecord
  2
DOT2
 70
0
  3
Dot (.5x) .....................................
 72
65
 73
2
 40
3.1749999999999998
 49
0.0
 74
0
 49
-3.1749999999999998
 74
0
  0
LTYPE
  5
33
100
AcDbSymbolTableRecord
100
AcDbLinetypeTableRecord
  2
DOTX2
 70
0
  3
Dot (2x) .  .  .  .  .  .  .  .  .  .  .  .  .
 72
65
 73
2
 40
12.6999999999999993
 49
0.0
 74
0
 49
-12.6999999999999993
 74
0
  0
LTYPE
  5
34
100
AcDbSymbolTableRecord
100
AcDbLinetypeTableRecord
  2
DASHED
 70
0
  3
Dashed __ __ __ __ __ __ __ __ __ __ __ __ __ _
 72
65
 73
2
 40
19.0500000000000007
 49
12.6999999999999993
 74
0
 49
-6.3499999999999996
 74
0
  0
LTYPE
  5
35
100
AcDbSymbolTableRecord
100
AcDbLinetypeTableRecord
  2
DASHED2
 70
0
  3
Dashed (.5x) _ _ _ _ _ _ _ _ _ _ _ _ _ _ _ _ _
 72
65
 73
2
 40
9.5250000000000004
 49
6.3499999999999996
 74
0
 49
-3.1749999999999998
 74
0
  0
LTYPE
  5
36
100
AcDbSymbolTableRecord
100
AcDbLinetypeTableRecord
  2
DASHEDX2
 70
0
  3
Dashed (2x) ____  ____  ____  ____  ____  ___
 72
65
 73
2
 40
38.1000000000000014
 49
25.3999999999999986
 74
0
 49
-12.6999999999999993
 74
0
  0
LTYPE
  5
37
100
AcDbSymbolTableRecord
100
AcDbLinetypeTableRecord
  2
DASHDOT
 70
0
  3
Dash dot __ . __ . __ . __ . __ . __ . __ . __
 72
65
 73
4
 40
25.3999999999999986
 49
12.6999999999999993
 74
0
 49
-6.3499999999999996
 74
0
 49
0.0
 74
0
 49
-6.3499999999999996
 74
0
  0
LTYPE
  5
38
100
AcDbSymbolTableRecord
100
AcDbLinetypeTableRecord
  2
DASHDOT2
 70
0
  3
Dash dot (.5x) _._._._._._._._._._._._._._._.
 72
65
 73
4
 40
12.6999999999999993
 49
6.3499999999999996
 74
0
 49
-3.1749999999999998
 74
0
 49
0.0
 74
0
 49
-3.1749999999999998
 74
0
  0
LTYPE
  5
39
100
AcDbSymbolTableRecord
100
AcDbLinetypeTableRecord
  2
DASHDOTX2
 70
0
  3
Dash dot (2x) ____  .  ____  .  ____  .  ___
 72
65
 73
4
 40
50.7999999999999972
 49
25.3999999999999986
 74
0
 49
-12.6999999999999993
 74
0
 49
0.0
 74
0
 49
-12.6999999999999993
 74
0
  0
LTYPE
  5
3A
100
AcDbSymbolTableRecord
100
AcDbLinetypeTableRecord
  2
DIVIDE
 70
0
  3
Divide ____ . . ____ . . ____ . . ____ . . ____
 72
65
 73
6
 40
31.75
 49
12.6999999999999993
 74
0
 49
-6.3499999999999996
 74
0
 49
0.0
 74
0
 49
-6.3499999999999996
 74
0
 49
0.0
 74
0
 49
-6.3499999999999996
 74
0
  0
LTYPE
  5
3B
100
AcDbSymbolTableRecord
100
AcDbLinetypeTableRecord
  2
DIVIDE2
 70
0
  3
Divide (.5x) __..__..__..__..__..__..__..__.._
 72
65
 73
6
 40
15.875
 49
6.3499999999999996
 74
0
 49
-3.1749999999999998
 74
0
 49
0.0
 74
0
 49
-3.1749999999999998
 74
0
 49
0.0
 74
0
 49
-3.1749999999999998
 74
0
  0
LTYPE
  5
3C
100
AcDbSymbolTableRecord
100
AcDbLinetypeTableRecord
  2
DIVIDEX2
 70
0
  3
Divide (2x) ________  .  .  ________  .  .  _
 72
65
 73
6
 40
63.5
 49
25.3999999999999986
 74
0
 49
-12.6999999999999993
 74
0
 49
0.0
 74
0
 49
-12.6999999999999993
 74
0
 49
0.0
 74
0
 49
-12.6999999999999993
 74
0
  0
LTYPE
  5
3D
100
AcDbSymbolTableRecord
100
AcDbLinetypeTableRecord
  2
CENTER
 70
0
  3
Center ____ _ ____ _ ____ _ ____ _ ____ _ ____
 72
65
 73
4
 40
50.7999999999999972
 49
31.75
 74
0
 49
-6.3499999999999996
 74
0
 49
6.3499999999999996
 74
0
 49
-6.3499999999999996
 74
0
  0
LTYPE
  5
3E
100
AcDbSymbolTableRecord
100
AcDbLinetypeTableRecord
  2
CENTER2
 70
0
  3
Center (.5x) ___ _ ___ _ ___ _ ___ _ ___ _ ___
 72
65
 73
4
 40
28.5749999999999993
 49
19.0500000000000007
 74
0
 49
-3.1749999999999998
 74
0
 49
3.1749999999999998
 74
0
 49
-3.1749999999999998
 74
0
  0
LTYPE
  5
3F
100
AcDbSymbolTableRecord
100
AcDbLinetypeTableRecord
  2
CENTERX2
 70
0
  3
Center (2x) ________  __  ________  __  _____
 72
65
 73
4
 40
101.5999999999999943
 49
63.5
 74
0
 49
-12.6999999999999993
 74
0
 49
12.6999999999999993
 74
0
 49
-12.6999999999999993
 74
0
  0
LTYPE
  5
40
100
AcDbSymbolTableRecord
100
AcDbLinetypeTableRecord
  2
BORDER
 70
0
  3
Border __ __ . __ __ . __ __ . __ __ . __ __ .
 72
65
 73
6
 40
44.4500000000000028
 49
12.6999999999999993
 74
0
 49
-6.3499999999999996
 74
0
 49
12.6999999999999993
 74
0
 49
-6.3499999999999996
 74
0
 49
0.0
 74
0
 49
-6.3499999999999996
 74
0
  0
LTYPE
  5
41
100
AcDbSymbolTableRecord
100
AcDbLinetypeTableRecord
  2
BORDER2
 70
0
  3
Border (.5x) __.__.__.__.__.__.__.__.__.__.__.
 72
65
 73
6
 40
22.2250000000000014
 49
6.3499999999999996
 74
0
 49
-3.1749999999999998
 74
0
 49
6.3499999999999996
 74
0
 49
-3.1749999999999998
 74
0
 49
0.0
 74
0
 49
-3.1749999999999998
 74
0
  0
LTYPE
  5
42
100
AcDbSymbolTableRecord
100
AcDbLinetypeTableRecord
  2
BORDERX2
 70
0
  3
Border (2x) ____  ____  .  ____  ____  .  ___
 72
65
 73
6
 40
88.9000000000000057
 49
25.3999999999999986
 74
0
 49
-12.6999999999999993
 74
0
 49
25.3999999999999986
 74
0
 49
-12.6999999999999993
 74
0
 49
0.0
 74
0
 49
-12.6999999999999993
 74
0
  0
ENDTAB
  0
TABLE
  2
LAYER
  5
2
100
AcDbSymbolTable
 70
14
  0
LAYER
  5
10
100
AcDbSymbolTableRecord
100
AcDbLayerTableRecord
  2
0
 70
1
 62
7
  6
CONTINUOUS
370
0
390
F
  0
LAYER
  5
43
100
AcDbSymbolTableRecord
100
AcDbLayerTableRecord
  2
bulloni
 70
5
 62
190
  6
CONTINUOUS
370
0
390
F
  0
LAYER
  5
44
100
AcDbSymbolTableRecord
100
AcDbLayerTableRecord
  2
morsi estrema destra
 70
1
 62
3
  6
CONTINUOUS
370
0
390
F
  0
LAYER
  5
45
100
AcDbSymbolTableRecord
100
AcDbLayerTableRecord
  2
morsi fronte
 70
1
 62
2
  6
CONTINUOUS
370
0
390
F
  0
LAYER
  5
46
100
AcDbSymbolTableRecord
100
AcDbLayerTableRecord
  2
ipe estrema destra
 70
5
 62
7
  6
CONTINUOUS
370
0
390
F
  0
LAYER
  5
47
100
AcDbSymbolTableRecord
100
AcDbLayerTableRecord
  2
ipe destra
 70
5
 62
7
  6
CONTINUOUS
370
0
390
F
  0
LAYER
  5
48
100
AcDbSymbolTableRecord
100
AcDbLayerTableRecord
  2
morsi destra
 70
1
 62
3
  6
CONTINUOUS
370
0
390
F
  0
LAYER
  5
49
100
AcDbSymbolTableRecord
100
AcDbLayerTableRecord
  2
ipe centrale
 70
5
 62
7
  6
CONTINUOUS
370
0
390
F
  0
LAYER
  5
4A
100
AcDbSymbolTableRecord
100
AcDbLayerTableRecord
  2
morsi centrale
 70
1
 62
3
  6
CONTINUOUS
370
0
390
F
  0
LAYER
  5
4B
100
AcDbSymbolTableRecord
100
AcDbLayerTableRecord
  2
ipe oltre
 70
4
 62
7
  6
CONTINUOUS
370
0
390
F
  0
LAYER
  5
4C
100
AcDbSymbolTableRecord
100
AcDbLayerTableRecord
  2
bulloni oltre
 70
4
 62
6
  6
CONTINUOUS
370
0
390
F
  0
LAYER
  5
4D
100
AcDbSymbolTableRecord
100
AcDbLayerTableRecord
  2
morsi oltre
 70
0
 62
3
  6
CONTINUOUS
370
0
390
F
  0
LAYER
  5
4E
100
AcDbSymbolTableRecord
100
AcDbLayerTableRecord
  2
ipe 3 centrale
 70
5
 62
7
  6
CONTINUOUS
370
0
390
F
  0
LAYER
  5
4F
100
AcDbSymbolTableRecord
100
AcDbLayerTableRecord
  2
morsi 3 centrale
 70
5
 62
3
  6
CONTINUOUS
370
0
390
F
  0
ENDTAB
  0
TABLE
  2
STYLE
  5
3
100
AcDbSymbolTable
 70
1
  0
STYLE
  5
11
100
AcDbSymbolTableRecord
100
AcDbTextStyleTableRecord
  2
Standard
 70
0
 40
0.0
 41
0.75
 50
0.0
 71
0
 42
2.5
  3
txt
  4

  0
ENDTAB
  0
TABLE
  2
VIEW
  5
6
100
AcDbSymbolTable
 70
0
  0
ENDTAB
  0
TABLE
  2
UCS
  5
7
100
AcDbSymbolTable
 70
0
  0
ENDTAB
  0
TABLE
  2
APPID
  5
9
100
AcDbSymbolTable
 70
1
  0
APPID
  5
12
100
AcDbSymbolTableRecord
100
AcDbRegAppTableRecord
  2
ACAD
 70
0
  0
ENDTAB
  0
TABLE
  2
DIMSTYLE
  5
A
100
AcDbSymbolTable
 70
1
100
AcDbDimStyleTable
 71
0
  0
DIMSTYLE
105
27
100
AcDbSymbolTableRecord
100
AcDbDimStyleTableRecord
  2
Standard
 41
2.5
 42
0.625
 43
3.75
 44
1.25
 70
0
 73
0
 74
0
 77
1
 78
8
140
2.5
141
2.5
143
0.03937007874016
147
0.625
171
3
172
1
271
2
272
2
274
3
278
44
283
0
284
8
340
11
  0
ENDTAB
  0
TABLE
  2
BLOCK_RECORD
  5
1
100
AcDbSymbolTable
 70
1
  0
BLOCK_RECORD
  5
1F
100
AcDbSymbolTableRecord
100
AcDbBlockTableRecord
  2
*Model_Space
340
22
  0
BLOCK_RECORD
  5
1B
100
AcDbSymbolTableRecord
100
AcDbBlockTableRecord
  2
*Paper_Space
340
1E
  0
BLOCK_RECORD
  5
23
100
AcDbSymbolTableRecord
100
AcDbBlockTableRecord
  2
*Paper_Space0
340
26
  0
ENDTAB
  0
ENDSEC
  0
SECTION
  2
BLOCKS
  0
BLOCK
  5
20
100
AcDbEntity
  8
0
100
AcDbBlockBegin
  2
*Model_Space
 70
0
 10
0.0
 20
0.0
 30
0.0
  3
*Model_Space
  1

  0
ENDBLK
  5
21
100
AcDbEntity
  8
0
100
AcDbBlockEnd
  0
BLOCK
  5
1C
100
AcDbEntity
 67
1
  8
0
100
AcDbBlockBegin
  2
*Paper_Space
 70
0
 10
0.0
 20
0.0
 30
0.0
  3
*Paper_Space
  1

  0
ENDBLK
  5
1D
100
AcDbEntity
 67
1
  8
0
100
AcDbBlockEnd
  0
BLOCK
  5
24
100
AcDbEntity
  8
0
100
AcDbBlockBegin
  2
*Paper_Space0
 70
0
 10
0.0
 20
0.0
 30
0.0
  3
*Paper_Space0
  1

  0
ENDBLK
  5
25
100
AcDbEntity
  8
0
100
AcDbBlockEnd
  0
ENDSEC
  0
SECTION
  2
ENTITIES
  0
LINE
  5
50
100
AcDbEntity
100
AcDbLine
  8
bulloni
 62
256
370
-1
  6
ByLayer
 10
110.0
 20
0.0
 30
0.0
 11
110.0
 21
31.6999999999999993
 31
0.0
  0
LINE
  5
51
100
AcDbEntity
100
AcDbLine
  8
bulloni
 62
256
370
-1
  6
ByLayer
 10
12.0
 20
0.0
 30
0.0
 11
12.0
 21
11.6999999999999993
 31
0.0
  0
LINE
  5
52
100
AcDbEntity
100
AcDbLine
  8
bulloni
 62
256
370
-1
  6
ByLayer
 10
137.5
 20
0.0
 30
0.0
 11
137.5
 21
11.6999999999999993
 31
0.0
  0
LINE
  5
53
100
AcDbEntity
100
AcDbLine
  8
bulloni
 62
256
370
-1
  6
ByLayer
 10
149.5
 20
0.0
 30
0.0
 11
149.5
 21
11.6999999999999993
 31
0.0
  0
LINE
  5
54
100
AcDbEntity
100
AcDbLine
  8
bulloni
 62
256
370
-1
  6
ByLayer
 10
122.0
 20
0.0
 30
0.0
 11
122.0
 21
31.6999999999999993
 31
0.0
  0
LINE
  5
55
100
AcDbEntity
100
AcDbLine
  8
bulloni
 62
256
370
-1
  6
ByLayer
 10
39.5
 20
0.0
 30
0.0
 11
39.5
 21
31.6999999999999993
 31
0.0
  0
LINE
  5
56
100
AcDbEntity
100
AcDbLine
  8
bulloni
 62
256
370
-1
  6
ByLayer
 10
94.5
 20
0.0
 30
0.0
 11
94.5
 21
6.0
 31
0.0
  0
LINE
  5
57
100
AcDbEntity
100
AcDbLine
  8
bulloni
 62
256
370
-1
  6
ByLayer
 10
82.5
 20
0.0
 30
0.0
 11
82.5
 21
6.0
 31
0.0
  0
LINE
  5
58
100
AcDbEntity
100
AcDbLine
  8
bulloni
 62
256
370
-1
  6
ByLayer
 10
67.0
 20
0.0
 30
0.0
 11
67.0
 21
6.0
 31
0.0
  0
LINE
  5
59
100
AcDbEntity
100
AcDbLine
  8
bulloni
 62
256
370
-1
  6
ByLayer
 10
55.0
 20
0.0
 30
0.0
 11
55.0
 21
6.0
 31
0.0
  0
LINE
  5
5A
100
AcDbEntity
100
AcDbLine
  8
bulloni
 62
256
370
-1
  6
ByLayer
 10
105.0
 20
31.6999999999999993
 30
0.0
 11
105.0
 21
41.7000000000000028
 31
0.0
  0
LINE
  5
5B
100
AcDbEntity
100
AcDbLine
  8
bulloni
 62
256
370
-1
  6
ByLayer
 10
127.0
 20
41.6999999999999957
 30
0.0
 11
105.0
 21
41.7000000000000028
 31
0.0
  0
LINE
  5
5C
100
AcDbEntity
100
AcDbLine
  8
bulloni
 62
256
370
-1
  6
ByLayer
 10
127.0
 20
31.6999999999999922
 30
0.0
 11
127.0
 21
41.6999999999999957
 31
0.0
  0
LINE
  5
5D
100
AcDbEntity
100
AcDbLine
  8
bulloni
 62
256
370
-1
  6
ByLayer
 10
22.5
 20
31.6999999999999993
 30
0.0
 11
22.5
 21
41.7000000000000028
 31
0.0
  0
LINE
  5
5E
100
AcDbEntity
100
AcDbLine
  8
bulloni
 62
256
370
-1
  6
ByLayer
 10
44.5
 20
31.6999999999999922
 30
0.0
 11
44.5
 21
41.6999999999999957
 31
0.0
  0
LINE
  5
5F
100
AcDbEntity
100
AcDbLine
  8
bulloni
 62
256
370
-1
  6
ByLayer
 10
0.0
 20
0.0
 30
0.0
 11
12.0
 21
0.0
 31
0.0
  0
LINE
  5
60
100
AcDbEntity
100
AcDbLine
  8
bulloni
 62
256
370
-1
  6
ByLayer
 10
55.0
 20
0.0
 30
0.0
 11
67.0
 21
0.0
 31
0.0
  0
LINE
  5
61
100
AcDbEntity
100
AcDbLine
  8
bulloni
 62
256
370
-1
  6
ByLayer
 10
82.5
 20
0.0
 30
0.0
 11
94.5
 21
0.0
 31
0.0
  0
LINE
  5
62
100
AcDbEntity
100
AcDbLine
  8
bulloni
 62
256
370
-1
  6
ByLayer
 10
110.0
 20
0.0
 30
0.0
 11
122.0
 21
0.0
 31
0.0
  0
LINE
  5
63
100
AcDbEntity
100
AcDbLine
  8
bulloni
 62
256
370
-1
  6
ByLayer
 10
137.5
 20
0.0
 30
0.0
 11
149.5
 21
0.0
 31
0.0
  0
LINE
  5
64
100
AcDbEntity
100
AcDbLine
  8
bulloni
 62
256
370
-1
  6
ByLayer
 10
82.5
 20
6.0
 30
0.0
 11
94.5
 21
6.0
 31
0.0
  0
LINE
  5
65
100
AcDbEntity
100
AcDbLine
  8
bulloni
 62
256
370
-1
  6
ByLayer
 10
67.0
 20
6.0
 30
0.0
 11
55.0
 21
6.0
 31
0.0
  0
LINE
  5
66
100
AcDbEntity
100
AcDbLine
  8
bulloni
 62
256
370
-1
  6
ByLayer
 10
137.5
 20
11.6999999999999993
 30
0.0
 11
149.5
 21
11.6999999999999993
 31
0.0
  0
LINE
  5
67
100
AcDbEntity
100
AcDbLine
  8
bulloni
 62
256
370
-1
  6
ByLayer
 10
122.0
 20
31.6999999999999993
 30
0.0
 11
127.0
 21
31.6999999999999922
 31
0.0
  0
LINE
  5
68
100
AcDbEntity
100
AcDbLine
  8
bulloni
 62
256
370
-1
  6
ByLayer
 10
110.0
 20
31.6999999999999993
 30
0.0
 11
105.0
 21
31.6999999999999993
 31
0.0
  0
LINE
  5
69
100
AcDbEntity
100
AcDbLine
  8
bulloni
 62
256
370
-1
  6
ByLayer
 10
44.5
 20
31.6999999999999922
 30
0.0
 11
39.5
 21
31.6999999999999993
 31
0.0
  0
LINE
  5
6A
100
AcDbEntity
100
AcDbLine
  8
bulloni
 62
256
370
-1
  6
ByLayer
 10
27.5
 20
31.6999999999999993
 30
0.0
 11
22.5
 21
31.6999999999999993
 31
0.0
  0
LINE
  5
6B
100
AcDbEntity
100
AcDbLine
  8
bulloni
 62
256
370
-1
  6
ByLayer
 10
122.0
 20
31.6999999999999993
 30
0.0
 11
110.0
 21
31.6999999999999993
 31
0.0
  0
LINE
  5
6C
100
AcDbEntity
100
AcDbLine
  8
bulloni
 62
256
370
-1
  6
ByLayer
 10
39.5
 20
31.6999999999999993
 30
0.0
 11
27.5
 21
31.6999999999999993
 31
0.0
  0
LINE
  5
6D
100
AcDbEntity
100
AcDbLine
  8
bulloni
 62
256
370
-1
  6
ByLayer
 10
0.0
 20
0.0
 30
0.0
 11
0.0
 21
11.6999999999999993
 31
0.0
  0
LINE
  5
6E
100
AcDbEntity
100
AcDbLine
  8
bulloni
 62
256
370
-1
  6
ByLayer
 10
12.0
 20
11.6999999999999993
 30
0.0
 11
0.0
 21
11.6999999999999993
 31
0.0
  0
LINE
  5
6F
100
AcDbEntity
100
AcDbLine
  8
bulloni
 62
256
370
-1
  6
ByLayer
 10
27.5
 20
0.0
 30
0.0
 11
39.5
 21
0.0
 31
0.0
  0
LINE
  5
70
100
AcDbEntity
100
AcDbLine
  8
bulloni
 62
256
370
-1
  6
ByLayer
 10
27.5
 20
0.0
 30
0.0
 11
27.5
 21
31.6999999999999993
 31
0.0
  0
LINE
  5
71
100
AcDbEntity
100
AcDbLine
  8
morsi estrema destra
 62
256
370
-1
  6
ByLayer
 10
100.5499999999999972
 20
11.6999999999999993
 30
0.0
 11
100.5499999999999972
 21
31.6999999999999993
 31
0.0
  0
LINE
  5
72
100
AcDbEntity
100
AcDbLine
  8
morsi estrema destra
 62
256
370
-1
  6
ByLayer
 10
167.5500000000000114
 20
11.6999999999999993
 30
0.0
 11
167.5500000000000114
 21
31.6999999999999993
 31
0.0
  0
DIMENSION
  5
73
100
AcDbEntity
  8
bulloni
 62
256
370
-1
  6
ByLayer
100
AcDbDimension
 10
44.5
 20
41.6999999999999957
 30
0.0
 11
33.5
 21
43.5750000000000028
 31
0.0
 70
1
 71
5
 72
0
 41
1.0
 42
0.0
  1

  3
Standard
100
AcDbAlignedDimension
 13
22.5
 23
41.7000000000000028
 33
0.0
 14
44.5
 24
41.6999999999999957
 34
0.0
  0
DIMENSION
  5
74
100
AcDbEntity
  8
bulloni
 62
256
370
-1
  6
ByLayer
100
AcDbDimension
 10
39.5
 20
0.0
 30
0.0
 11
33.5
 21
1.875
 31
0.0
 70
1
 71
5
 72
0
 41
1.0
 42
0.0
  1

  3
Standard
100
AcDbAlignedDimension
 13
27.5
 23
0.0
 33
0.0
 14
39.5
 24
0.0
 34
0.0
  0
DIMENSION
  5
75
100
AcDbEntity
  8
bulloni
 62
256
370
-1
  6
ByLayer
100
AcDbDimension
 10
127.0
 20
41.6999999999999957
 30
0.0
 11
125.125
 21
36.6999999999999957
 31
0.0
 70
1
 71
5
 72
0
 41
1.0
 42
0.0
  1

  3
Standard
100
AcDbAlignedDimension
 13
127.0
 23
31.6999999999999922
 33
0.0
 14
127.0
 24
41.6999999999999957
 34
0.0
  0
ARC
  5
76
100
AcDbEntity
  8
morsi fronte
 62
256
370
-1
  6
ByLayer
100
AcDbCircle
 10
51.5499999999999901
 20
-45.6281086048524145
 30
0.0
 40
6.5
100
AcDbArc
 50
269.9999999999999432
 51
90.0
  0
LINE
  5
77
100
AcDbEntity
100
AcDbLine
  8
morsi fronte
 62
256
370
-1
  6
ByLayer
 10
67.0
 20
-30.6281086048524109
 30
0.0
 11
67.0
 21
-60.6281086048524145
 31
0.0
  0
LINE
  5
78
100
AcDbEntity
100
AcDbLine
  8
morsi fronte
 62
256
370
-1
  6
ByLayer
 10
-0.0000000000000026
 20
-30.6281086048524109
 30
0.0
 11
67.0
 21
-30.6281086048524109
 31
0.0
  0
LINE
  5
79
100
AcDbEntity
100
AcDbLine
  8
morsi fronte
 62
256
370
-1
  6
ByLayer
 10
-0.0000000000000026
 20
-30.6281086048524109
 30
0.0
 11
-0.0000000000000044
 21
-60.6281086048524145
 31
0.0
  0
LINE
  5
7A
100
AcDbEntity
100
AcDbLine
  8
morsi fronte
 62
256
370
-1
  6
ByLayer
 10
-0.0000000000000044
 20
-60.6281086048524145
 30
0.0
 11
67.0
 21
-60.6281086048524145
 31
0.0
  0
LINE
  5
7B
100
AcDbEntity
100
AcDbLine
  8
morsi estrema destra
 62
256
370
-1
  6
ByLayer
 10
100.5499999999999972
 20
31.6999999999999993
 30
0.0
 11
109.5
 21
31.6999999999999993
 31
0.0
  0
LINE
  5
7C
100
AcDbEntity
100
AcDbLine
  8
morsi estrema destra
 62
256
370
-1
  6
ByLayer
 10
109.5
 20
31.6999999999999993
 30
0.0
 11
140.5500000000000114
 21
31.6999999999999993
 31
0.0
  0
LINE
  5
7D
100
AcDbEntity
100
AcDbLine
  8
morsi estrema destra
 62
256
370
-1
  6
ByLayer
 10
140.5500000000000114
 20
31.6999999999999993
 30
0.0
 11
167.5500000000000114
 21
31.6999999999999993
 31
0.0
  0
LINE
  5
7E
100
AcDbEntity
100
AcDbLine
  8
morsi estrema destra
 62
256
370
-1
  6
ByLayer
 10
167.5500000000000114
 20
11.6999999999999993
 30
0.0
 11
140.5500000000000114
 21
11.6999999999999993
 31
0.0
  0
LINE
  5
7F
100
AcDbEntity
100
AcDbLine
  8
morsi estrema destra
 62
256
370
-1
  6
ByLayer
 10
140.5500000000000114
 20
11.6999999999999993
 30
0.0
 11
109.5
 21
11.6999999999999993
 31
0.0
  0
LINE
  5
80
100
AcDbEntity
100
AcDbLine
  8
morsi estrema destra
 62
256
370
-1
  6
ByLayer
 10
109.5
 20
11.6999999999999993
 30
0.0
 11
100.5499999999999972
 21
11.6999999999999993
 31
0.0
  0
POINT
  5
81
100
AcDbEntity
100
AcDbPoint
  8
morsi fronte
 62
256
370
-1
  6
ByLayer
 10
51.5499999999999901
 20
-45.6281086048524145
 30
0.0
  0
POINT
  5
82
100
AcDbEntity
100
AcDbPoint
  8
morsi fronte
 62
256
370
-1
  6
ByLayer
 10
27.0
 20
31.6999999999999993
 30
0.0
  0
LINE
  5
83
100
AcDbEntity
100
AcDbLine
  8
morsi estrema destra
 62
256
370
-1
  6
DASHEDX2
 10
109.5
 20
11.6999999999999993
 30
0.0
 11
109.5
 21
31.6999999999999993
 31
0.0
  0
DIMENSION
  5
84
100
AcDbEntity
  8
morsi estrema destra
 62
256
370
-1
  6
DASHED2
100
AcDbDimension
 10
161.6378326965812846
 20
11.6999999999999993
 30
0.0
 11
159.7628326965812846
 21
21.6999999999999993
 31
0.0
 70
0
 71
5
 72
0
 41
1.0
 42
0.0
  1

  3
Standard
100
AcDbAlignedDimension
 13
167.5500000000000114
 23
31.6999999999999993
 33
0.0
 14
167.5500000000000114
 24
11.6999999999999993
 34
0.0
 50
90.0
100
AcDbRotatedDimension
  0
LINE
  5
85
100
AcDbEntity
100
AcDbLine
  8
morsi estrema destra
 62
256
370
-1
  6
ByLayer
 10
64.3698347107438167
 20
11.6999999999999993
 30
0.0
 11
64.3698347107438167
 21
31.6999999999999993
 31
0.0
  0
LINE
  5
86
100
AcDbEntity
100
AcDbLine
  8
morsi estrema destra
 62
256
370
-1
  6
ByLayer
 10
-2.6301652892561833
 20
31.6999999999999993
 30
0.0
 11
-2.6301652892561833
 21
11.6999999999999993
 31
0.0
  0
LINE
  5
87
100
AcDbEntity
100
AcDbLine
  8
morsi estrema destra
 62
256
370
-1
  6
ByLayer
 10
-2.6301652892561833
 20
31.6999999999999993
 30
0.0
 11
24.3698347107438167
 21
31.6999999999999993
 31
0.0
  0
LINE
  5
88
100
AcDbEntity
100
AcDbLine
  8
morsi estrema destra
 62
256
370
-1
  6
ByLayer
 10
24.3698347107438167
 20
31.6999999999999993
 30
0.0
 11
55.4198347107438138
 21
31.6999999999999993
 31
0.0
  0
LINE
  5
89
100
AcDbEntity
100
AcDbLine
  8
morsi estrema destra
 62
256
370
-1
  6
ByLayer
 10
55.4198347107438138
 20
31.6999999999999993
 30
0.0
 11
64.3698347107438167
 21
31.6999999999999993
 31
0.0
  0
LINE
  5
8A
100
AcDbEntity
100
AcDbLine
  8
morsi estrema destra
 62
256
370
-1
  6
ByLayer
 10
64.3698347107438167
 20
11.6999999999999993
 30
0.0
 11
55.4198347107438138
 21
11.6999999999999993
 31
0.0
  0
LINE
  5
8B
100
AcDbEntity
100
AcDbLine
  8
morsi estrema destra
 62
256
370
-1
  6
ByLayer
 10
55.4198347107438138
 20
11.6999999999999993
 30
0.0
 11
24.3698347107438167
 21
11.6999999999999993
 31
0.0
  0
LINE
  5
8C
100
AcDbEntity
100
AcDbLine
  8
morsi estrema destra
 62
256
370
-1
  6
ByLayer
 10
24.3698347107438167
 20
11.6999999999999993
 30
0.0
 11
-2.6301652892561833
 21
11.6999999999999993
 31
0.0
  0
LINE
  5
8D
100
AcDbEntity
100
AcDbLine
  8
morsi estrema destra
 62
256
370
-1
  6
DASHEDX2
 10
55.4198347107438138
 20
31.6999999999999993
 30
0.0
 11
55.4198347107438138
 21
11.6999999999999993
 31
0.0
  0
MTEXT
  5
8E
100
AcDbEntity
100
AcDbMText
  8
morsi estrema destra
 62
256
370
-1
  6
ByLayer
 10
-10.5888429752066138
 20
46.4876033057851288
 30
0.0
 40
3.0
 41
100.0
 71
1
 72
0
  1
Morsi
  7
normallatin1
 50
0.0
 73
1
 44
1.0
  0
LINE
  5
8F
100
AcDbEntity
100
AcDbLine
  8
ipe destra
 62
256
370
-1
  6
ByLayer
 10
82.5
 20
6.0
 30
0.0
 11
110.0
 21
6.0
 31
0.0
  0
LINE
  5
90
100
AcDbEntity
100
AcDbLine
  8
ipe destra
 62
256
370
-1
  6
ByLayer
 10
55.0000000000000071
 20
106.0
 30
0.0
 11
110.0
 21
106.0
 31
0.0
  0
LINE
  5
91
100
AcDbEntity
100
AcDbLine
  8
ipe destra
 62
256
370
-1
  6
ByLayer
 10
55.0000000000000071
 20
100.2999999999999972
 30
0.0
 11
55.0000000000000071
 21
106.0
 31
0.0
  0
LINE
  5
92
100
AcDbEntity
100
AcDbLine
  8
ipe destra
 62
256
370
-1
  6
ByLayer
 10
110.0
 20
100.2999999999999972
 30
0.0
 11
110.0
 21
106.0
 31
0.0
  0
ARC
  5
93
100
AcDbEntity
  8
ipe destra
 62
256
370
-1
  6
ByLayer
100
AcDbCircle
 10
91.5500000000000114
 20
93.2999999999999972
 30
0.0
 40
7.0
100
AcDbArc
 50
90.0
 51
180.0
  0
ARC
  5
94
100
AcDbEntity
  8
ipe destra
 62
256
370
-1
  6
ByLayer
100
AcDbCircle
 10
73.4500000000000028
 20
93.2999999999999972
 30
0.0
 40
7.0
100
AcDbArc
 50
360.0
 51
89.9999999999999858
  0
ARC
  5
95
100
AcDbEntity
  8
ipe destra
 62
256
370
-1
  6
ByLayer
100
AcDbCircle
 10
91.5499999999999972
 20
18.7000000000000028
 30
0.0
 40
7.0
100
AcDbArc
 50
180.0
 51
270.0
  0
ARC
  5
96
100
AcDbEntity
  8
ipe destra
 62
256
370
-1
  6
ByLayer
100
AcDbCircle
 10
73.4499999999999886
 20
18.7000000000000028
 30
0.0
 40
7.0
100
AcDbArc
 50
270.0
 51
0.0
  0
LINE
  5
97
100
AcDbEntity
100
AcDbLine
  8
ipe destra
 62
256
370
-1
  6
ByLayer
 10
91.5500000000000114
 20
100.2999999999999972
 30
0.0
 11
110.0
 21
100.2999999999999972
 31
0.0
  0
LINE
  5
98
100
AcDbEntity
100
AcDbLine
  8
ipe destra
 62
256
370
-1
  6
ByLayer
 10
55.0000000000000071
 20
100.2999999999999972
 30
0.0
 11
73.4500000000000028
 21
100.2999999999999972
 31
0.0
  0
LINE
  5
99
100
AcDbEntity
100
AcDbLine
  8
ipe destra
 62
256
370
-1
  6
ByLayer
 10
91.5499999999999972
 20
11.6999999999999993
 30
0.0
 11
110.0
 21
11.6999999999999993
 31
0.0
  0
LINE
  5
9A
100
AcDbEntity
100
AcDbLine
  8
ipe destra
 62
256
370
-1
  6
ByLayer
 10
55.0
 20
6.0
 30
0.0
 11
61.0
 21
6.0
 31
0.0
  0
LINE
  5
9B
100
AcDbEntity
100
AcDbLine
  8
ipe destra
 62
256
370
-1
  6
ByLayer
 10
55.0
 20
6.0
 30
0.0
 11
55.0
 21
11.6999999999999993
 31
0.0
  0
LINE
  5
9C
100
AcDbEntity
100
AcDbLine
  8
ipe destra
 62
256
370
-1
  6
ByLayer
 10
110.0
 20
6.0
 30
0.0
 11
110.0
 21
11.6999999999999993
 31
0.0
  0
LINE
  5
9D
100
AcDbEntity
100
AcDbLine
  8
ipe destra
 62
256
370
-1
  6
ByLayer
 10
55.0
 20
11.6999999999999993
 30
0.0
 11
73.4499999999999886
 21
11.6999999999999993
 31
0.0
  0
LINE
  5
9E
100
AcDbEntity
100
AcDbLine
  8
ipe destra
 62
256
370
-1
  6
ByLayer
 10
55.0
 20
6.0
 30
0.0
 11
55.0
 21
11.6999999999999993
 31
0.0
  0
LINE
  5
9F
100
AcDbEntity
100
AcDbLine
  8
ipe destra
 62
256
370
-1
  6
ByLayer
 10
55.0
 20
6.0
 30
0.0
 11
82.5
 21
6.0
 31
0.0
  0
LINE
  5
A0
100
AcDbEntity
100
AcDbLine
  8
ipe destra
 62
256
370
-1
  6
CONTINUOUS
 10
84.5499999999999972
 20
18.7000000000000028
 30
0.0
 11
84.5500000000000114
 21
93.2999999999999972
 31
0.0
  0
LINE
  5
A1
100
AcDbEntity
100
AcDbLine
  8
ipe destra
 62
256
370
-1
  6
CONTINUOUS
 10
80.4500000000000028
 20
18.7000000000000028
 30
0.0
 11
80.4500000000000028
 21
93.2999999999999972
 31
0.0
  0
MTEXT
  5
A2
100
AcDbEntity
100
AcDbMText
  8
morsi destra
 62
256
370
-1
  6
ByLayer
 10
-10.5888429752066138
 20
46.4876033057851288
 30
0.0
 40
3.0
 41
100.0
 71
1
 72
0
  1
Morsi
  7
normallatin1
 50
0.0
 73
1
 44
1.0
  0
LINE
  5
A3
100
AcDbEntity
100
AcDbLine
  8
morsi destra
 62
256
370
-1
  6
ByLayer
 10
91.5499999999999972
 20
11.7000000000000028
 30
0.0
 11
91.5499999999999972
 21
31.7000000000000028
 31
0.0
  0
LINE
  5
A4
100
AcDbEntity
100
AcDbLine
  8
morsi destra
 62
256
370
-1
  6
ByLayer
 10
158.5500000000000114
 20
11.7000000000000028
 30
0.0
 11
158.5500000000000114
 21
31.7000000000000028
 31
0.0
  0
LINE
  5
A5
100
AcDbEntity
100
AcDbLine
  8
morsi destra
 62
256
370
-1
  6
ByLayer
 10
91.5499999999999972
 20
31.7000000000000028
 30
0.0
 11
100.5
 21
31.7000000000000028
 31
0.0
  0
LINE
  5
A6
100
AcDbEntity
100
AcDbLine
  8
morsi destra
 62
256
370
-1
  6
ByLayer
 10
100.5
 20
31.7000000000000028
 30
0.0
 11
131.5500000000000114
 21
31.7000000000000028
 31
0.0
  0
LINE
  5
A7
100
AcDbEntity
100
AcDbLine
  8
morsi destra
 62
256
370
-1
  6
ByLayer
 10
131.5500000000000114
 20
31.7000000000000028
 30
0.0
 11
158.5500000000000114
 21
31.7000000000000028
 31
0.0
  0
LINE
  5
A8
100
AcDbEntity
100
AcDbLine
  8
morsi destra
 62
256
370
-1
  6
ByLayer
 10
158.5500000000000114
 20
11.7000000000000028
 30
0.0
 11
131.5500000000000114
 21
11.7000000000000028
 31
0.0
  0
LINE
  5
A9
100
AcDbEntity
100
AcDbLine
  8
morsi destra
 62
256
370
-1
  6
ByLayer
 10
131.5500000000000114
 20
11.7000000000000028
 30
0.0
 11
100.5
 21
11.7000000000000028
 31
0.0
  0
LINE
  5
AA
100
AcDbEntity
100
AcDbLine
  8
morsi destra
 62
256
370
-1
  6
ByLayer
 10
100.5
 20
11.7000000000000028
 30
0.0
 11
91.5499999999999972
 21
11.7000000000000028
 31
0.0
  0
LINE
  5
AB
100
AcDbEntity
100
AcDbLine
  8
morsi destra
 62
256
370
-1
  6
DASHEDX2
 10
100.5
 20
11.7000000000000028
 30
0.0
 11
100.5
 21
31.7000000000000028
 31
0.0
  0
DIMENSION
  5
AC
100
AcDbEntity
  8
morsi destra
 62
256
370
-1
  6
DASHED2
100
AcDbDimension
 10
152.6378326965812846
 20
11.7000000000000028
 30
0.0
 11
150.7628326965812846
 21
21.7000000000000028
 31
0.0
 70
0
 71
5
 72
0
 41
1.0
 42
0.0
  1

  3
Standard
100
AcDbAlignedDimension
 13
158.5500000000000114
 23
31.7000000000000028
 33
0.0
 14
158.5500000000000114
 24
11.7000000000000028
 34
0.0
 50
90.0
100
AcDbRotatedDimension
  0
LINE
  5
AD
100
AcDbEntity
100
AcDbLine
  8
morsi destra
 62
256
370
-1
  6
ByLayer
 10
67.0
 20
11.6999999999999993
 30
0.0
 11
67.0
 21
31.6999999999999993
 31
0.0
  0
LINE
  5
AE
100
AcDbEntity
100
AcDbLine
  8
morsi destra
 62
256
370
-1
  6
ByLayer
 10
0.0
 20
31.6999999999999993
 30
0.0
 11
0.0
 21
11.6999999999999993
 31
0.0
  0
LINE
  5
AF
100
AcDbEntity
100
AcDbLine
  8
morsi destra
 62
256
370
-1
  6
ByLayer
 10
0.0
 20
31.6999999999999993
 30
0.0
 11
27.0
 21
31.6999999999999993
 31
0.0
  0
LINE
  5
B0
100
AcDbEntity
100
AcDbLine
  8
morsi destra
 62
256
370
-1
  6
ByLayer
 10
27.0
 20
31.6999999999999993
 30
0.0
 11
58.0499999999999972
 21
31.6999999999999993
 31
0.0
  0
LINE
  5
B1
100
AcDbEntity
100
AcDbLine
  8
morsi destra
 62
256
370
-1
  6
ByLayer
 10
58.0499999999999972
 20
31.6999999999999993
 30
0.0
 11
67.0
 21
31.6999999999999993
 31
0.0
  0
LINE
  5
B2
100
AcDbEntity
100
AcDbLine
  8
morsi destra
 62
256
370
-1
  6
ByLayer
 10
67.0
 20
11.6999999999999993
 30
0.0
 11
58.0499999999999972
 21
11.6999999999999993
 31
0.0
  0
LINE
  5
B3
100
AcDbEntity
100
AcDbLine
  8
morsi destra
 62
256
370
-1
  6
ByLayer
 10
58.0499999999999972
 20
11.6999999999999993
 30
0.0
 11
27.0
 21
11.6999999999999993
 31
0.0
  0
LINE
  5
B4
100
AcDbEntity
100
AcDbLine
  8
morsi destra
 62
256
370
-1
  6
ByLayer
 10
27.0
 20
11.6999999999999993
 30
0.0
 11
0.0
 21
11.6999999999999993
 31
0.0
  0
LINE
  5
B5
100
AcDbEntity
100
AcDbLine
  8
morsi destra
 62
256
370
-1
  6
DASHEDX2
 10
58.0499999999999972
 20
31.6999999999999993
 30
0.0
 11
58.0499999999999972
 21
11.6999999999999993
 31
0.0
  0
POINT
  5
B6
100
AcDbEntity
100
AcDbPoint
  8
ipe centrale
 62
256
370
-1
  6
ByLayer
 10
47.25
 20
6.0
 30
0.0
  0
LINE
  5
B7
100
AcDbEntity
100
AcDbLine
  8
ipe centrale
 62
256
370
-1
  6
ByLayer
 10
74.75
 20
6.0
 30
0.0
 11
102.25
 21
6.0
 31
0.0
  0
LINE
  5
B8
100
AcDbEntity
100
AcDbLine
  8
ipe centrale
 62
256
370
-1
  6
ByLayer
 10
47.2500000000000071
 20
106.0
 30
0.0
 11
102.25
 21
106.0
 31
0.0
  0
LINE
  5
B9
100
AcDbEntity
100
AcDbLine
  8
ipe centrale
 62
256
370
-1
  6
ByLayer
 10
47.2500000000000071
 20
100.2999999999999972
 30
0.0
 11
47.2500000000000071
 21
106.0
 31
0.0
  0
LINE
  5
BA
100
AcDbEntity
100
AcDbLine
  8
ipe centrale
 62
256
370
-1
  6
ByLayer
 10
102.25
 20
100.2999999999999972
 30
0.0
 11
102.25
 21
106.0
 31
0.0
  0
ARC
  5
BB
100
AcDbEntity
  8
ipe centrale
 62
256
370
-1
  6
ByLayer
100
AcDbCircle
 10
83.8000000000000114
 20
93.2999999999999972
 30
0.0
 40
7.0
100
AcDbArc
 50
90.0
 51
180.0
  0
ARC
  5
BC
100
AcDbEntity
  8
ipe centrale
 62
256
370
-1
  6
ByLayer
100
AcDbCircle
 10
65.7000000000000028
 20
93.2999999999999972
 30
0.0
 40
7.0
100
AcDbArc
 50
360.0
 51
89.9999999999999858
  0
ARC
  5
BD
100
AcDbEntity
  8
ipe centrale
 62
256
370
-1
  6
ByLayer
100
AcDbCircle
 10
83.7999999999999972
 20
18.7000000000000028
 30
0.0
 40
7.0
100
AcDbArc
 50
180.0
 51
270.0
  0
ARC
  5
BE
100
AcDbEntity
  8
ipe centrale
 62
256
370
-1
  6
ByLayer
100
AcDbCircle
 10
65.6999999999999886
 20
18.7000000000000028
 30
0.0
 40
7.0
100
AcDbArc
 50
270.0
 51
0.0
  0
LINE
  5
BF
100
AcDbEntity
100
AcDbLine
  8
ipe centrale
 62
256
370
-1
  6
ByLayer
 10
83.8000000000000114
 20
100.2999999999999972
 30
0.0
 11
102.25
 21
100.2999999999999972
 31
0.0
  0
LINE
  5
C0
100
AcDbEntity
100
AcDbLine
  8
ipe centrale
 62
256
370
-1
  6
ByLayer
 10
47.2500000000000071
 20
100.2999999999999972
 30
0.0
 11
65.7000000000000028
 21
100.2999999999999972
 31
0.0
  0
LINE
  5
C1
100
AcDbEntity
100
AcDbLine
  8
ipe centrale
 62
256
370
-1
  6
ByLayer
 10
83.7999999999999972
 20
11.6999999999999993
 30
0.0
 11
102.25
 21
11.6999999999999993
 31
0.0
  0
LINE
  5
C2
100
AcDbEntity
100
AcDbLine
  8
ipe centrale
 62
256
370
-1
  6
ByLayer
 10
47.25
 20
6.0
 30
0.0
 11
53.25
 21
6.0
 31
0.0
  0
LINE
  5
C3
100
AcDbEntity
100
AcDbLine
  8
ipe centrale
 62
256
370
-1
  6
ByLayer
 10
47.25
 20
6.0
 30
0.0
 11
47.25
 21
11.6999999999999993
 31
0.0
  0
LINE
  5
C4
100
AcDbEntity
100
AcDbLine
  8
ipe centrale
 62
256
370
-1
  6
ByLayer
 10
102.25
 20
6.0
 30
0.0
 11
102.25
 21
11.6999999999999993
 31
0.0
  0
LINE
  5
C5
100
AcDbEntity
100
AcDbLine
  8
ipe centrale
 62
256
370
-1
  6
ByLayer
 10
47.25
 20
6.0
 30
0.0
 11
47.25
 21
11.6999999999999993
 31
0.0
  0
LINE
  5
C6
100
AcDbEntity
100
AcDbLine
  8
ipe centrale
 62
256
370
-1
  6
ByLayer
 10
47.25
 20
6.0
 30
0.0
 11
74.75
 21
6.0
 31
0.0
  0
LINE
  5
C7
100
AcDbEntity
100
AcDbLine
  8
ipe centrale
 62
256
370
-1
  6
CONTINUOUS
 10
76.7999999999999972
 20
18.7000000000000028
 30
0.0
 11
76.8000000000000114
 21
93.2999999999999972
 31
0.0
  0
LINE
  5
C8
100
AcDbEntity
100
AcDbLine
  8
ipe centrale
 62
256
370
-1
  6
CONTINUOUS
 10
72.7000000000000028
 20
18.7000000000000028
 30
0.0
 11
72.7000000000000028
 21
93.2999999999999972
 31
0.0
  0
LINE
  5
C9
100
AcDbEntity
100
AcDbLine
  8
ipe estrema destra
 62
256
370
-1
  6
ByLayer
 10
82.5
 20
6.0
 30
0.0
 11
110.0
 21
6.0
 31
0.0
  0
LINE
  5
CA
100
AcDbEntity
100
AcDbLine
  8
ipe estrema destra
 62
256
370
-1
  6
ByLayer
 10
55.0000000000000071
 20
106.0
 30
0.0
 11
110.0
 21
106.0
 31
0.0
  0
LINE
  5
CB
100
AcDbEntity
100
AcDbLine
  8
ipe estrema destra
 62
256
370
-1
  6
ByLayer
 10
55.0000000000000071
 20
100.2999999999999972
 30
0.0
 11
55.0000000000000071
 21
106.0
 31
0.0
  0
LINE
  5
CC
100
AcDbEntity
100
AcDbLine
  8
ipe estrema destra
 62
256
370
-1
  6
ByLayer
 10
110.0
 20
100.2999999999999972
 30
0.0
 11
110.0
 21
106.0
 31
0.0
  0
ARC
  5
CD
100
AcDbEntity
  8
ipe estrema destra
 62
256
370
-1
  6
ByLayer
100
AcDbCircle
 10
91.5500000000000114
 20
93.2999999999999972
 30
0.0
 40
7.0
100
AcDbArc
 50
90.0
 51
180.0
  0
ARC
  5
CE
100
AcDbEntity
  8
ipe estrema destra
 62
256
370
-1
  6
ByLayer
100
AcDbCircle
 10
73.4500000000000028
 20
93.2999999999999972
 30
0.0
 40
7.0
100
AcDbArc
 50
360.0
 51
89.9999999999999858
  0
ARC
  5
CF
100
AcDbEntity
  8
ipe estrema destra
 62
256
370
-1
  6
ByLayer
100
AcDbCircle
 10
91.5499999999999972
 20
18.7000000000000028
 30
0.0
 40
7.0
100
AcDbArc
 50
180.0
 51
270.0
  0
ARC
  5
D0
100
AcDbEntity
  8
ipe estrema destra
 62
256
370
-1
  6
ByLayer
100
AcDbCircle
 10
73.4499999999999886
 20
18.7000000000000028
 30
0.0
 40
7.0
100
AcDbArc
 50
270.0
 51
0.0
  0
LINE
  5
D1
100
AcDbEntity
100
AcDbLine
  8
ipe estrema destra
 62
256
370
-1
  6
ByLayer
 10
91.5500000000000114
 20
100.2999999999999972
 30
0.0
 11
110.0
 21
100.2999999999999972
 31
0.0
  0
LINE
  5
D2
100
AcDbEntity
100
AcDbLine
  8
ipe estrema destra
 62
256
370
-1
  6
ByLayer
 10
55.0000000000000071
 20
100.2999999999999972
 30
0.0
 11
73.4500000000000028
 21
100.2999999999999972
 31
0.0
  0
LINE
  5
D3
100
AcDbEntity
100
AcDbLine
  8
ipe estrema destra
 62
256
370
-1
  6
ByLayer
 10
91.5499999999999972
 20
11.6999999999999993
 30
0.0
 11
110.0
 21
11.6999999999999993
 31
0.0
  0
LINE
  5
D4
100
AcDbEntity
100
AcDbLine
  8
ipe estrema destra
 62
256
370
-1
  6
ByLayer
 10
55.0
 20
6.0
 30
0.0
 11
61.0
 21
6.0
 31
0.0
  0
LINE
  5
D5
100
AcDbEntity
100
AcDbLine
  8
ipe estrema destra
 62
256
370
-1
  6
ByLayer
 10
55.0
 20
6.0
 30
0.0
 11
55.0
 21
11.6999999999999993
 31
0.0
  0
LINE
  5
D6
100
AcDbEntity
100
AcDbLine
  8
ipe estrema destra
 62
256
370
-1
  6
ByLayer
 10
110.0
 20
6.0
 30
0.0
 11
110.0
 21
11.6999999999999993
 31
0.0
  0
LINE
  5
D7
100
AcDbEntity
100
AcDbLine
  8
ipe estrema destra
 62
256
370
-1
  6
ByLayer
 10
55.0
 20
11.6999999999999993
 30
0.0
 11
73.4499999999999886
 21
11.6999999999999993
 31
0.0
  0
LINE
  5
D8
100
AcDbEntity
100
AcDbLine
  8
ipe estrema destra
 62
256
370
-1
  6
ByLayer
 10
55.0
 20
6.0
 30
0.0
 11
55.0
 21
11.6999999999999993
 31
0.0
  0
LINE
  5
D9
100
AcDbEntity
100
AcDbLine
  8
ipe estrema destra
 62
256
370
-1
  6
ByLayer
 10
55.0
 20
6.0
 30
0.0
 11
82.5
 21
6.0
 31
0.0
  0
LINE
  5
DA
100
AcDbEntity
100
AcDbLine
  8
ipe estrema destra
 62
256
370
-1
  6
CONTINUOUS
 10
84.5499999999999972
 20
18.7000000000000028
 30
0.0
 11
84.5500000000000114
 21
93.2999999999999972
 31
0.0
  0
LINE
  5
DB
100
AcDbEntity
100
AcDbLine
  8
ipe estrema destra
 62
256
370
-1
  6
CONTINUOUS
 10
80.4500000000000028
 20
18.7000000000000028
 30
0.0
 11
80.4500000000000028
 21
93.2999999999999972
 31
0.0
  0
LINE
  5
DC
100
AcDbEntity
100
AcDbLine
  8
ipe estrema destra
 62
256
370
-1
  6
ByLayer
 10
80.4500000000000028
 20
93.2999999999999972
 30
0.0
 11
74.4500000000000028
 21
93.2999999999999972
 31
0.0
  0
LINE
  5
DD
100
AcDbEntity
100
AcDbLine
  8
ipe estrema destra
 62
256
370
-1
  6
ByLayer
 10
80.4499999999999886
 20
18.7000000000000028
 30
0.0
 11
74.4499999999999886
 21
18.7000000000000028
 31
0.0
  0
LINE
  5
DE
100
AcDbEntity
100
AcDbLine
  8
ipe estrema destra
 62
256
370
-1
  6
ByLayer
 10
84.5500000000000114
 20
93.2999999999999972
 30
0.0
 11
90.5500000000000114
 21
93.2999999999999972
 31
0.0
  0
LINE
  5
DF
100
AcDbEntity
100
AcDbLine
  8
ipe estrema destra
 62
256
370
-1
  6
ByLayer
 10
84.5499999999999972
 20
18.7000000000000028
 30
0.0
 11
90.5499999999999972
 21
18.7000000000000028
 31
0.0
  0
LINE
  5
E0
100
AcDbEntity
100
AcDbLine
  8
ipe estrema destra
 62
256
370
-1
  6
ByLayer
 10
90.5500000000000114
 20
93.2999999999999972
 30
0.0
 11
90.5499999999999972
 21
18.7000000000000028
 31
0.0
  0
LINE
  5
E1
100
AcDbEntity
100
AcDbLine
  8
ipe estrema destra
 62
256
370
-1
  6
ByLayer
 10
74.4500000000000028
 20
93.2999999999999972
 30
0.0
 11
74.4499999999999886
 21
18.7000000000000028
 31
0.0
  0
LINE
  5
E2
100
AcDbEntity
100
AcDbLine
  8
ipe estrema destra
 62
256
370
-1
  6
ByLayer
 10
90.5499999999999972
 20
18.7000000000000028
 30
0.0
 11
90.5499999999999972
 21
37.3500000000000014
 31
0.0
  0
LINE
  5
E3
100
AcDbEntity
100
AcDbLine
  8
ipe estrema destra
 62
256
370
-1
  6
ByLayer
 10
100.5499999999999972
 20
37.3500000000000014
 30
0.0
 11
100.5499999999999972
 21
26.3500000000000014
 31
0.0
  0
LINE
  5
E4
100
AcDbEntity
100
AcDbLine
  8
ipe estrema destra
 62
256
370
-1
  6
ByLayer
 10
100.5499999999999972
 20
37.3500000000000014
 30
0.0
 11
100.5499999999999972
 21
48.3500000000000014
 31
0.0
  0
LINE
  5
E5
100
AcDbEntity
100
AcDbLine
  8
ipe estrema destra
 62
256
370
-1
  6
ByLayer
 10
64.4499999999999886
 20
37.3500000000000085
 30
0.0
 11
64.4499999999999886
 21
48.3500000000000085
 31
0.0
  0
LINE
  5
E6
100
AcDbEntity
100
AcDbLine
  8
ipe estrema destra
 62
256
370
-1
  6
ByLayer
 10
64.4499999999999886
 20
26.3500000000000014
 30
0.0
 11
74.4499999999999886
 21
26.3500000000000014
 31
0.0
  0
LINE
  5
E7
100
AcDbEntity
100
AcDbLine
  8
ipe estrema destra
 62
256
370
-1
  6
ByLayer
 10
64.4499999999999886
 20
37.3500000000000085
 30
0.0
 11
64.4499999999999886
 21
26.3500000000000014
 31
0.0
  0
LINE
  5
E8
100
AcDbEntity
100
AcDbLine
  8
ipe estrema destra
 62
256
370
-1
  6
ByLayer
 10
100.5499999999999972
 20
26.3500000000000014
 30
0.0
 11
90.5499999999999972
 21
26.3500000000000014
 31
0.0
  0
LINE
  5
E9
100
AcDbEntity
100
AcDbLine
  8
ipe estrema destra
 62
256
370
-1
  6
ByLayer
 10
100.5499999999999972
 20
48.3500000000000014
 30
0.0
 11
90.5499999999999972
 21
48.3500000000000014
 31
0.0
  0
LINE
  5
EA
100
AcDbEntity
100
AcDbLine
  8
ipe estrema destra
 62
256
370
-1
  6
ByLayer
 10
64.4499999999999886
 20
48.3500000000000085
 30
0.0
 11
74.4499999999999886
 21
48.3500000000000014
 31
0.0
  0
LINE
  5
EB
100
AcDbEntity
100
AcDbLine
  8
ipe estrema destra
 62
256
370
-1
  6
DOT
 10
90.5499999999999972
 20
43.3500000000000014
 30
0.0
 11
74.4499999999999886
 21
43.3500000000000014
 31
0.0
  0
LINE
  5
EC
100
AcDbEntity
100
AcDbLine
  8
ipe estrema destra
 62
256
370
-1
  6
DOT
 10
90.5499999999999972
 20
31.3500000000000014
 30
0.0
 11
74.4499999999999886
 21
31.3500000000000014
 31
0.0
  0
LINE
  5
ED
100
AcDbEntity
100
AcDbLine
  8
morsi centrale
 62
256
370
-1
  6
ByLayer
 10
65.6999999999999886
 20
11.6999999999999993
 30
0.0
 11
65.6999999999999886
 21
31.6999999999999993
 31
0.0
  0
LINE
  5
EE
100
AcDbEntity
100
AcDbLine
  8
morsi centrale
 62
256
370
-1
  6
ByLayer
 10
-1.3000000000000114
 20
31.6999999999999993
 30
0.0
 11
-1.3000000000000114
 21
11.6999999999999993
 31
0.0
  0
LINE
  5
EF
100
AcDbEntity
100
AcDbLine
  8
morsi centrale
 62
256
370
-1
  6
ByLayer
 10
-1.3000000000000114
 20
31.6999999999999993
 30
0.0
 11
25.6999999999999886
 21
31.6999999999999993
 31
0.0
  0
LINE
  5
F0
100
AcDbEntity
100
AcDbLine
  8
morsi centrale
 62
256
370
-1
  6
ByLayer
 10
25.6999999999999886
 20
31.6999999999999993
 30
0.0
 11
56.7499999999999858
 21
31.6999999999999993
 31
0.0
  0
LINE
  5
F1
100
AcDbEntity
100
AcDbLine
  8
morsi centrale
 62
256
370
-1
  6
ByLayer
 10
56.7499999999999858
 20
31.6999999999999993
 30
0.0
 11
65.6999999999999886
 21
31.6999999999999993
 31
0.0
  0
LINE
  5
F2
100
AcDbEntity
100
AcDbLine
  8
morsi centrale
 62
256
370
-1
  6
ByLayer
 10
65.6999999999999886
 20
11.6999999999999993
 30
0.0
 11
56.7499999999999858
 21
11.6999999999999993
 31
0.0
  0
LINE
  5
F3
100
AcDbEntity
100
AcDbLine
  8
morsi centrale
 62
256
370
-1
  6
ByLayer
 10
56.7499999999999858
 20
11.6999999999999993
 30
0.0
 11
25.6999999999999886
 21
11.6999999999999993
 31
0.0
  0
LINE
  5
F4
100
AcDbEntity
100
AcDbLine
  8
morsi centrale
 62
256
370
-1
  6
ByLayer
 10
25.6999999999999886
 20
11.6999999999999993
 30
0.0
 11
-1.3000000000000114
 21
11.6999999999999993
 31
0.0
  0
LINE
  5
F5
100
AcDbEntity
100
AcDbLine
  8
morsi centrale
 62
256
370
-1
  6
DASHEDX2
 10
56.7499999999999858
 20
31.6999999999999993
 30
0.0
 11
56.7499999999999858
 21
11.6999999999999993
 31
0.0
  0
LINE
  5
F6
100
AcDbEntity
100
AcDbLine
  8
morsi centrale
 62
256
370
-1
  6
ByLayer
 10
83.7999999999999972
 20
11.6999999999999993
 30
0.0
 11
83.7999999999999972
 21
31.6999999999999993
 31
0.0
  0
LINE
  5
F7
100
AcDbEntity
100
AcDbLine
  8
morsi centrale
 62
256
370
-1
  6
ByLayer
 10
150.8000000000000114
 20
11.6999999999999993
 30
0.0
 11
150.8000000000000114
 21
31.6999999999999993
 31
0.0
  0
LINE
  5
F8
100
AcDbEntity
100
AcDbLine
  8
morsi centrale
 62
256
370
-1
  6
ByLayer
 10
83.7999999999999972
 20
31.6999999999999993
 30
0.0
 11
92.75
 21
31.6999999999999993
 31
0.0
  0
LINE
  5
F9
100
AcDbEntity
100
AcDbLine
  8
morsi centrale
 62
256
370
-1
  6
ByLayer
 10
92.75
 20
31.6999999999999993
 30
0.0
 11
123.8000000000000114
 21
31.6999999999999993
 31
0.0
  0
LINE
  5
FA
100
AcDbEntity
100
AcDbLine
  8
morsi centrale
 62
256
370
-1
  6
ByLayer
 10
123.8000000000000114
 20
31.6999999999999993
 30
0.0
 11
150.8000000000000114
 21
31.6999999999999993
 31
0.0
  0
LINE
  5
FB
100
AcDbEntity
100
AcDbLine
  8
morsi centrale
 62
256
370
-1
  6
ByLayer
 10
150.8000000000000114
 20
11.6999999999999993
 30
0.0
 11
123.8000000000000114
 21
11.6999999999999993
 31
0.0
  0
LINE
  5
FC
100
AcDbEntity
100
AcDbLine
  8
morsi centrale
 62
256
370
-1
  6
ByLayer
 10
123.8000000000000114
 20
11.6999999999999993
 30
0.0
 11
92.75
 21
11.6999999999999993
 31
0.0
  0
LINE
  5
FD
100
AcDbEntity
100
AcDbLine
  8
morsi centrale
 62
256
370
-1
  6
ByLayer
 10
92.75
 20
11.6999999999999993
 30
0.0
 11
83.7999999999999972
 21
11.6999999999999993
 31
0.0
  0
LINE
  5
FE
100
AcDbEntity
100
AcDbLine
  8
morsi centrale
 62
256
370
-1
  6
DASHEDX2
 10
92.75
 20
11.6999999999999993
 30
0.0
 11
92.75
 21
31.6999999999999993
 31
0.0
  0
DIMENSION
  5
FF
100
AcDbEntity
  8
morsi centrale
 62
256
370
-1
  6
DASHED2
100
AcDbDimension
 10
144.8878326965812846
 20
11.6999999999999993
 30
0.0
 11
143.0128326965812846
 21
21.6999999999999993
 31
0.0
 70
0
 71
5
 72
0
 41
1.0
 42
0.0
  1

  3
Standard
100
AcDbAlignedDimension
 13
150.8000000000000114
 23
31.6999999999999993
 33
0.0
 14
150.8000000000000114
 24
11.6999999999999993
 34
0.0
 50
90.0
100
AcDbRotatedDimension
  0
LINE
  5
100
100
AcDbEntity
100
AcDbLine
  8
ipe centrale
 62
256
370
-1
  6
ByLayer
 10
47.25
 20
11.6999999999999993
 30
0.0
 11
65.6999999999999886
 21
11.6999999999999993
 31
0.0
  0
LINE
  5
101
100
AcDbEntity
100
AcDbLine
  8
bulloni oltre
 62
256
370
-1
  6
ByLayer
 10
12.0
 20
0.0
 30
0.0
 11
12.0
 21
11.6999999999999993
 31
0.0
  0
LINE
  5
102
100
AcDbEntity
100
AcDbLine
  8
bulloni oltre
 62
256
370
-1
  6
ByLayer
 10
39.5
 20
0.0
 30
0.0
 11
39.5
 21
31.6999999999999993
 31
0.0
  0
LINE
  5
103
100
AcDbEntity
100
AcDbLine
  8
bulloni oltre
 62
256
370
-1
  6
ByLayer
 10
94.5
 20
0.0
 30
0.0
 11
94.5
 21
6.0
 31
0.0
  0
LINE
  5
104
100
AcDbEntity
100
AcDbLine
  8
bulloni oltre
 62
256
370
-1
  6
ByLayer
 10
82.5
 20
0.0
 30
0.0
 11
82.5
 21
6.0
 31
0.0
  0
LINE
  5
105
100
AcDbEntity
100
AcDbLine
  8
bulloni oltre
 62
256
370
-1
  6
ByLayer
 10
67.0
 20
0.0
 30
0.0
 11
67.0
 21
6.0
 31
0.0
  0
LINE
  5
106
100
AcDbEntity
100
AcDbLine
  8
bulloni oltre
 62
256
370
-1
  6
ByLayer
 10
55.0
 20
0.0
 30
0.0
 11
55.0
 21
6.0
 31
0.0
  0
LINE
  5
107
100
AcDbEntity
100
AcDbLine
  8
bulloni oltre
 62
256
370
-1
  6
ByLayer
 10
22.5
 20
31.6999999999999993
 30
0.0
 11
22.5
 21
41.7000000000000028
 31
0.0
  0
LINE
  5
108
100
AcDbEntity
100
AcDbLine
  8
bulloni oltre
 62
256
370
-1
  6
ByLayer
 10
44.5
 20
31.6999999999999922
 30
0.0
 11
44.5
 21
41.6999999999999957
 31
0.0
  0
LINE
  5
109
100
AcDbEntity
100
AcDbLine
  8
bulloni oltre
 62
256
370
-1
  6
ByLayer
 10
0.0
 20
0.0
 30
0.0
 11
12.0
 21
0.0
 31
0.0
  0
LINE
  5
10A
100
AcDbEntity
100
AcDbLine
  8
bulloni oltre
 62
256
370
-1
  6
ByLayer
 10
55.0
 20
0.0
 30
0.0
 11
67.0
 21
0.0
 31
0.0
  0
LINE
  5
10B
100
AcDbEntity
100
AcDbLine
  8
bulloni oltre
 62
256
370
-1
  6
ByLayer
 10
82.5
 20
0.0
 30
0.0
 11
94.5
 21
0.0
 31
0.0
  0
LINE
  5
10C
100
AcDbEntity
100
AcDbLine
  8
bulloni oltre
 62
256
370
-1
  6
ByLayer
 10
82.5
 20
6.0
 30
0.0
 11
94.5
 21
6.0
 31
0.0
  0
LINE
  5
10D
100
AcDbEntity
100
AcDbLine
  8
bulloni oltre
 62
256
370
-1
  6
ByLayer
 10
67.0
 20
6.0
 30
0.0
 11
55.0
 21
6.0
 31
0.0
  0
LINE
  5
10E
100
AcDbEntity
100
AcDbLine
  8
bulloni oltre
 62
256
370
-1
  6
ByLayer
 10
44.5
 20
31.6999999999999922
 30
0.0
 11
39.5
 21
31.6999999999999993
 31
0.0
  0
LINE
  5
10F
100
AcDbEntity
100
AcDbLine
  8
bulloni oltre
 62
256
370
-1
  6
ByLayer
 10
27.5
 20
31.6999999999999993
 30
0.0
 11
22.5
 21
31.6999999999999993
 31
0.0
  0
LINE
  5
110
100
AcDbEntity
100
AcDbLine
  8
bulloni oltre
 62
256
370
-1
  6
ByLayer
 10
39.5
 20
31.6999999999999993
 30
0.0
 11
27.5
 21
31.6999999999999993
 31
0.0
  0
LINE
  5
111
100
AcDbEntity
100
AcDbLine
  8
bulloni oltre
 62
256
370
-1
  6
ByLayer
 10
0.0
 20
0.0
 30
0.0
 11
0.0
 21
11.6999999999999993
 31
0.0
  0
LINE
  5
112
100
AcDbEntity
100
AcDbLine
  8
bulloni oltre
 62
256
370
-1
  6
ByLayer
 10
12.0
 20
11.6999999999999993
 30
0.0
 11
0.0
 21
11.6999999999999993
 31
0.0
  0
LINE
  5
113
100
AcDbEntity
100
AcDbLine
  8
bulloni oltre
 62
256
370
-1
  6
ByLayer
 10
27.5
 20
0.0
 30
0.0
 11
39.5
 21
0.0
 31
0.0
  0
LINE
  5
114
100
AcDbEntity
100
AcDbLine
  8
bulloni oltre
 62
256
370
-1
  6
ByLayer
 10
27.5
 20
0.0
 30
0.0
 11
27.5
 21
31.6999999999999993
 31
0.0
  0
DIMENSION
  5
115
100
AcDbEntity
  8
bulloni oltre
 62
256
370
-1
  6
ByLayer
100
AcDbDimension
 10
44.5
 20
41.6999999999999957
 30
0.0
 11
33.5
 21
43.5750000000000028
 31
0.0
 70
1
 71
5
 72
0
 41
1.0
 42
0.0
  1

  3
Standard
100
AcDbAlignedDimension
 13
22.5
 23
41.7000000000000028
 33
0.0
 14
44.5
 24
41.6999999999999957
 34
0.0
  0
DIMENSION
  5
116
100
AcDbEntity
  8
bulloni oltre
 62
256
370
-1
  6
ByLayer
100
AcDbDimension
 10
39.5
 20
0.0
 30
0.0
 11
33.5
 21
1.875
 31
0.0
 70
1
 71
5
 72
0
 41
1.0
 42
0.0
  1

  3
Standard
100
AcDbAlignedDimension
 13
27.5
 23
0.0
 33
0.0
 14
39.5
 24
0.0
 34
0.0
  0
LINE
  5
117
100
AcDbEntity
100
AcDbLine
  8
bulloni oltre
 62
256
370
-1
  6
ByLayer
 10
137.5
 20
0.0
 30
0.0
 11
137.5
 21
31.6999999999999993
 31
0.0
  0
LINE
  5
118
100
AcDbEntity
100
AcDbLine
  8
bulloni oltre
 62
256
370
-1
  6
ByLayer
 10
165.0
 20
0.0
 30
0.0
 11
165.0
 21
11.6999999999999993
 31
0.0
  0
LINE
  5
119
100
AcDbEntity
100
AcDbLine
  8
bulloni oltre
 62
256
370
-1
  6
ByLayer
 10
177.0
 20
0.0
 30
0.0
 11
177.0
 21
11.6999999999999993
 31
0.0
  0
LINE
  5
11A
100
AcDbEntity
100
AcDbLine
  8
bulloni oltre
 62
256
370
-1
  6
ByLayer
 10
149.5
 20
0.0
 30
0.0
 11
149.5
 21
31.6999999999999993
 31
0.0
  0
LINE
  5
11B
100
AcDbEntity
100
AcDbLine
  8
bulloni oltre
 62
256
370
-1
  6
ByLayer
 10
132.5
 20
31.6999999999999993
 30
0.0
 11
132.5
 21
41.7000000000000028
 31
0.0
  0
LINE
  5
11C
100
AcDbEntity
100
AcDbLine
  8
bulloni oltre
 62
256
370
-1
  6
ByLayer
 10
154.5
 20
41.6999999999999957
 30
0.0
 11
132.5
 21
41.7000000000000028
 31
0.0
  0
LINE
  5
11D
100
AcDbEntity
100
AcDbLine
  8
bulloni oltre
 62
256
370
-1
  6
ByLayer
 10
154.5
 20
31.6999999999999922
 30
0.0
 11
154.5
 21
41.6999999999999957
 31
0.0
  0
LINE
  5
11E
100
AcDbEntity
100
AcDbLine
  8
bulloni oltre
 62
256
370
-1
  6
ByLayer
 10
137.5
 20
0.0
 30
0.0
 11
149.5
 21
0.0
 31
0.0
  0
LINE
  5
11F
100
AcDbEntity
100
AcDbLine
  8
bulloni oltre
 62
256
370
-1
  6
ByLayer
 10
165.0
 20
0.0
 30
0.0
 11
177.0
 21
0.0
 31
0.0
  0
LINE
  5
120
100
AcDbEntity
100
AcDbLine
  8
bulloni oltre
 62
256
370
-1
  6
ByLayer
 10
165.0
 20
11.6999999999999993
 30
0.0
 11
177.0
 21
11.6999999999999993
 31
0.0
  0
LINE
  5
121
100
AcDbEntity
100
AcDbLine
  8
bulloni oltre
 62
256
370
-1
  6
ByLayer
 10
149.5
 20
31.6999999999999993
 30
0.0
 11
154.5
 21
31.6999999999999922
 31
0.0
  0
LINE
  5
122
100
AcDbEntity
100
AcDbLine
  8
bulloni oltre
 62
256
370
-1
  6
ByLayer
 10
137.5
 20
31.6999999999999993
 30
0.0
 11
132.5
 21
31.6999999999999993
 31
0.0
  0
LINE
  5
123
100
AcDbEntity
100
AcDbLine
  8
bulloni oltre
 62
256
370
-1
  6
ByLayer
 10
149.5
 20
31.6999999999999993
 30
0.0
 11
137.5
 21
31.6999999999999993
 31
0.0
  0
DIMENSION
  5
124
100
AcDbEntity
  8
bulloni oltre
 62
256
370
-1
  6
ByLayer
100
AcDbDimension
 10
154.5
 20
41.6999999999999957
 30
0.0
 11
152.625
 21
36.6999999999999957
 31
0.0
 70
1
 71
5
 72
0
 41
1.0
 42
0.0
  1

  3
Standard
100
AcDbAlignedDimension
 13
154.5
 23
31.6999999999999922
 33
0.0
 14
154.5
 24
41.6999999999999957
 34
0.0
  0
LINE
  5
125
100
AcDbEntity
100
AcDbLine
  8
bulloni oltre
 62
256
370
-1
  6
ByLayer
 10
122.0
 20
0.0
 30
0.0
 11
122.0
 21
6.0
 31
0.0
  0
LINE
  5
126
100
AcDbEntity
100
AcDbLine
  8
bulloni oltre
 62
256
370
-1
  6
ByLayer
 10
110.0
 20
0.0
 30
0.0
 11
110.0
 21
6.0
 31
0.0
  0
LINE
  5
127
100
AcDbEntity
100
AcDbLine
  8
bulloni oltre
 62
256
370
-1
  6
ByLayer
 10
110.0
 20
0.0
 30
0.0
 11
122.0
 21
0.0
 31
0.0
  0
LINE
  5
128
100
AcDbEntity
100
AcDbLine
  8
bulloni oltre
 62
256
370
-1
  6
ByLayer
 10
110.0
 20
6.0
 30
0.0
 11
122.0
 21
6.0
 31
0.0
  0
LINE
  5
129
100
AcDbEntity
100
AcDbLine
  8
morsi oltre
 62
256
370
-1
  6
ByLayer
 10
3.0500000000000034
 20
31.7000000000000028
 30
0.0
 11
3.0499999999999972
 21
11.7000000000000011
 31
0.0
  0
LINE
  5
12A
100
AcDbEntity
100
AcDbLine
  8
morsi oltre
 62
256
370
-1
  6
ByLayer
 10
70.0499999999999972
 20
11.6999999999999851
 30
0.0
 11
70.0499999999999972
 21
31.6999999999999815
 31
0.0
  0
LINE
  5
12B
100
AcDbEntity
100
AcDbLine
  8
morsi oltre
 62
256
370
-1
  6
ByLayer
 10
70.0499999999999972
 20
11.6999999999999851
 30
0.0
 11
43.0499999999999972
 21
11.6999999999999904
 31
0.0
  0
LINE
  5
12C
100
AcDbEntity
100
AcDbLine
  8
morsi oltre
 62
256
370
-1
  6
ByLayer
 10
43.0499999999999972
 20
11.6999999999999904
 30
0.0
 11
12.0
 21
11.6999999999999993
 31
0.0
  0
LINE
  5
12D
100
AcDbEntity
100
AcDbLine
  8
morsi oltre
 62
256
370
-1
  6
ByLayer
 10
12.0
 20
11.6999999999999993
 30
0.0
 11
3.0499999999999972
 21
11.7000000000000011
 31
0.0
  0
LINE
  5
12E
100
AcDbEntity
100
AcDbLine
  8
morsi oltre
 62
256
370
-1
  6
ByLayer
 10
3.0500000000000034
 20
31.7000000000000028
 30
0.0
 11
12.0000000000000089
 21
31.7000000000000028
 31
0.0
  0
LINE
  5
12F
100
AcDbEntity
100
AcDbLine
  8
morsi oltre
 62
256
370
-1
  6
ByLayer
 10
12.0000000000000089
 20
31.7000000000000028
 30
0.0
 11
43.0500000000000043
 21
31.6999999999999957
 31
0.0
  0
LINE
  5
130
100
AcDbEntity
100
AcDbLine
  8
morsi oltre
 62
256
370
-1
  6
ByLayer
 10
43.0500000000000043
 20
31.6999999999999957
 30
0.0
 11
70.0499999999999972
 21
31.6999999999999815
 31
0.0
  0
LINE
  5
131
100
AcDbEntity
100
AcDbLine
  8
morsi oltre
 62
256
370
-1
  6
DASHEDX2
 10
12.0
 20
11.6999999999999993
 30
0.0
 11
12.0000000000000089
 21
31.7000000000000028
 31
0.0
  0
MTEXT
  5
132
100
AcDbEntity
100
AcDbMText
  8
morsi oltre
 62
256
370
-1
  6
ByLayer
 10
-31.441141679190455
 20
52.5485372586936066
 30
0.0
 40
3.0
 41
100.0
 71
1
 72
0
  1
Morsi\~invertiti\~per\~ipe\~su\~3\~grani
  7
normallatin1
 50
0.0
 73
1
 44
1.0
  0
MTEXT
  5
133
100
AcDbEntity
100
AcDbMText
  8
bulloni oltre
 62
256
370
-1
  6
ByLayer
 10
-3.8842975206613133
 20
71.909090909091077
 30
0.0
 40
3.0
 41
100.0
 71
1
 72
2
  1
Bulloni\~e\~grani\~per\~ipe\~su\~3\~grani
  7
normallatin1
 50
0.0
 73
0
 44
1.0
  0
MTEXT
  5
134
100
AcDbEntity
100
AcDbMText
  8
ipe centrale
 62
256
370
-1
  6
ByLayer
 10
100.9276859504132204
 20
81.6115702479338836
 30
0.0
 40
3.0
 41
100.0
 71
1
 72
0
  1
Ipe\~su\~2\~grani\Psenza\~piastra\~in\~ingombro
  7
normallatin1
 50
0.0
 73
1
 44
1.0
  0
MTEXT
  5
135
100
AcDbEntity
100
AcDbMText
  8
bulloni
 62
256
370
-1
  6
ByLayer
 10
-3.8842975206613133
 20
71.909090909091077
 30
0.0
 40
3.0
 41
100.0
 71
1
 72
2
  1
Bulloni\~e\~grani\~per\~ipe\~su\~2\~grani
  7
normallatin1
 50
0.0
 73
0
 44
1.0
  0
MTEXT
  5
136
100
AcDbEntity
100
AcDbMText
  8
morsi centrale
 62
256
370
-1
  6
ByLayer
 10
-10.5888429752066138
 20
46.4876033057851288
 30
0.0
 40
3.0
 41
100.0
 71
1
 72
0
  1
Morsi\~per\~ipe\~su\~2\~grani
  7
normallatin1
 50
0.0
 73
1
 44
1.0
  0
LINE
  5
137
100
AcDbEntity
100
AcDbLine
  8
ipe oltre
 62
256
370
-1
  6
ByLayer
 10
94.5
 20
6.0
 30
0.0
 11
122.0
 21
6.0
 31
0.0
  0
ARC
  5
138
100
AcDbEntity
  8
ipe oltre
 62
256
370
-1
  6
ByLayer
100
AcDbCircle
 10
103.5500000000000114
 20
18.7000000000000028
 30
0.0
 40
7.0
100
AcDbArc
 50
180.0
 51
270.0
  0
ARC
  5
139
100
AcDbEntity
  8
ipe oltre
 62
256
370
-1
  6
ByLayer
100
AcDbCircle
 10
85.4499999999999886
 20
18.7000000000000028
 30
0.0
 40
7.0
100
AcDbArc
 50
270.0
 51
0.0
  0
LINE
  5
13A
100
AcDbEntity
100
AcDbLine
  8
ipe oltre
 62
256
370
-1
  6
ByLayer
 10
103.5500000000000114
 20
11.6999999999999993
 30
0.0
 11
122.0
 21
11.6999999999999993
 31
0.0
  0
LINE
  5
13B
100
AcDbEntity
100
AcDbLine
  8
ipe oltre
 62
256
370
-1
  6
ByLayer
 10
67.0
 20
6.0
 30
0.0
 11
67.0
 21
11.6999999999999993
 31
0.0
  0
LINE
  5
13C
100
AcDbEntity
100
AcDbLine
  8
ipe oltre
 62
256
370
-1
  6
ByLayer
 10
122.0
 20
6.0
 30
0.0
 11
122.0
 21
11.6999999999999993
 31
0.0
  0
LINE
  5
13D
100
AcDbEntity
100
AcDbLine
  8
ipe oltre
 62
256
370
-1
  6
ByLayer
 10
67.0
 20
6.0
 30
0.0
 11
94.5
 21
6.0
 31
0.0
  0
LINE
  5
13E
100
AcDbEntity
100
AcDbLine
  8
ipe oltre
 62
256
370
-1
  6
CONTINUOUS
 10
96.5500000000000114
 20
18.7000000000000028
 30
0.0
 11
96.5500000000000114
 21
93.2999999999999972
 31
0.0
  0
LINE
  5
13F
100
AcDbEntity
100
AcDbLine
  8
ipe oltre
 62
256
370
-1
  6
CONTINUOUS
 10
92.4500000000000171
 20
18.7000000000000028
 30
0.0
 11
92.4500000000000171
 21
93.2999999999999972
 31
0.0
  0
LINE
  5
140
100
AcDbEntity
100
AcDbLine
  8
ipe oltre
 62
256
370
-1
  6
ByLayer
 10
67.0
 20
11.6999999999999993
 30
0.0
 11
85.4499999999999886
 21
11.6999999999999993
 31
0.0
  0
LINE
  5
141
100
AcDbEntity
100
AcDbLine
  8
ipe oltre
 62
256
370
-1
  6
ByLayer
 10
67.0
 20
106.0
 30
0.0
 11
122.0
 21
106.0
 31
0.0
  0
LINE
  5
142
100
AcDbEntity
100
AcDbLine
  8
ipe oltre
 62
256
370
-1
  6
ByLayer
 10
67.0
 20
100.2999999999999972
 30
0.0
 11
67.0
 21
106.0
 31
0.0
  0
LINE
  5
143
100
AcDbEntity
100
AcDbLine
  8
ipe oltre
 62
256
370
-1
  6
ByLayer
 10
122.0
 20
100.2999999999999972
 30
0.0
 11
122.0
 21
106.0
 31
0.0
  0
ARC
  5
144
100
AcDbEntity
  8
ipe oltre
 62
256
370
-1
  6
ByLayer
100
AcDbCircle
 10
103.5500000000000114
 20
93.2999999999999972
 30
0.0
 40
7.0
100
AcDbArc
 50
90.0
 51
180.0
  0
ARC
  5
145
100
AcDbEntity
  8
ipe oltre
 62
256
370
-1
  6
ByLayer
100
AcDbCircle
 10
85.4500000000000171
 20
93.2999999999999972
 30
0.0
 40
7.0
100
AcDbArc
 50
360.0
 51
89.9999999999999858
  0
LINE
  5
146
100
AcDbEntity
100
AcDbLine
  8
ipe oltre
 62
256
370
-1
  6
ByLayer
 10
103.5500000000000114
 20
100.2999999999999972
 30
0.0
 11
122.0
 21
100.2999999999999972
 31
0.0
  0
LINE
  5
147
100
AcDbEntity
100
AcDbLine
  8
ipe oltre
 62
256
370
-1
  6
ByLayer
 10
67.0
 20
100.2999999999999972
 30
0.0
 11
85.4500000000000171
 21
100.2999999999999972
 31
0.0
  0
LINE
  5
148
100
AcDbEntity
100
AcDbLine
  8
ipe oltre
 62
256
370
-1
  6
ByLayer
 10
96.5500000000000114
 20
93.2999999999999972
 30
0.0
 11
102.5500000000000114
 21
93.2999999999999972
 31
0.0
  0
LINE
  5
149
100
AcDbEntity
100
AcDbLine
  8
ipe oltre
 62
256
370
-1
  6
ByLayer
 10
96.5499999999999829
 20
18.7000000000000028
 30
0.0
 11
102.5499999999999829
 21
18.7000000000000028
 31
0.0
  0
LINE
  5
14A
100
AcDbEntity
100
AcDbLine
  8
ipe oltre
 62
256
370
-1
  6
ByLayer
 10
102.5500000000000114
 20
93.2999999999999972
 30
0.0
 11
102.5499999999999829
 21
18.7000000000000028
 31
0.0
  0
LINE
  5
14B
100
AcDbEntity
100
AcDbLine
  8
ipe oltre
 62
256
370
-1
  6
ByLayer
 10
102.5499999999999829
 20
18.7000000000000028
 30
0.0
 11
102.5499999999999829
 21
37.3500000000000014
 31
0.0
  0
LINE
  5
14C
100
AcDbEntity
100
AcDbLine
  8
ipe oltre
 62
256
370
-1
  6
ByLayer
 10
112.5499999999999829
 20
37.3500000000000014
 30
0.0
 11
112.5499999999999829
 21
26.3500000000000014
 31
0.0
  0
LINE
  5
14D
100
AcDbEntity
100
AcDbLine
  8
ipe oltre
 62
256
370
-1
  6
ByLayer
 10
112.5499999999999829
 20
37.3500000000000014
 30
0.0
 11
112.5499999999999829
 21
48.3500000000000014
 31
0.0
  0
LINE
  5
14E
100
AcDbEntity
100
AcDbLine
  8
ipe oltre
 62
256
370
-1
  6
ByLayer
 10
112.5499999999999829
 20
26.3500000000000014
 30
0.0
 11
102.5499999999999829
 21
26.3500000000000014
 31
0.0
  0
LINE
  5
14F
100
AcDbEntity
100
AcDbLine
  8
ipe oltre
 62
256
370
-1
  6
ByLayer
 10
112.5499999999999829
 20
48.3500000000000014
 30
0.0
 11
102.5499999999999829
 21
48.3500000000000014
 31
0.0
  0
LINE
  5
150
100
AcDbEntity
100
AcDbLine
  8
morsi oltre
 62
256
370
-1
  6
ByLayer
 10
179.5499999999999829
 20
31.6999999999999993
 30
0.0
 11
179.5499999999999829
 21
11.6999999999999975
 31
0.0
  0
LINE
  5
151
100
AcDbEntity
100
AcDbLine
  8
morsi oltre
 62
256
370
-1
  6
ByLayer
 10
112.5499999999999829
 20
31.7000000000000171
 30
0.0
 11
112.5499999999999829
 21
11.7000000000000064
 31
0.0
  0
LINE
  5
152
100
AcDbEntity
100
AcDbLine
  8
morsi oltre
 62
256
370
-1
  6
ByLayer
 10
179.5499999999999829
 20
11.6999999999999975
 30
0.0
 11
170.5999999999999943
 21
11.6999999999999993
 31
0.0
  0
LINE
  5
153
100
AcDbEntity
100
AcDbLine
  8
morsi oltre
 62
256
370
-1
  6
ByLayer
 10
170.5999999999999943
 20
11.6999999999999993
 30
0.0
 11
139.5499999999999829
 21
11.7000000000000028
 31
0.0
  0
LINE
  5
154
100
AcDbEntity
100
AcDbLine
  8
morsi oltre
 62
256
370
-1
  6
ByLayer
 10
139.5499999999999829
 20
11.7000000000000028
 30
0.0
 11
112.5499999999999829
 21
11.7000000000000064
 31
0.0
  0
LINE
  5
155
100
AcDbEntity
100
AcDbLine
  8
morsi oltre
 62
256
370
-1
  6
ByLayer
 10
112.5499999999999829
 20
31.7000000000000171
 30
0.0
 11
139.5500000000000114
 21
31.7000000000000348
 31
0.0
  0
LINE
  5
156
100
AcDbEntity
100
AcDbLine
  8
morsi oltre
 62
256
370
-1
  6
ByLayer
 10
139.5500000000000114
 20
31.7000000000000348
 30
0.0
 11
170.5999999999999943
 21
31.6999999999999993
 31
0.0
  0
LINE
  5
157
100
AcDbEntity
100
AcDbLine
  8
morsi oltre
 62
256
370
-1
  6
ByLayer
 10
170.5999999999999943
 20
31.6999999999999993
 30
0.0
 11
179.5499999999999829
 21
31.6999999999999993
 31
0.0
  0
LINE
  5
158
100
AcDbEntity
100
AcDbLine
  8
morsi oltre
 62
256
370
-1
  6
DASHEDX2
 10
170.5999999999999943
 20
31.6999999999999993
 30
0.0
 11
170.5999999999999943
 21
11.6999999999999993
 31
0.0
  0
DIMENSION
  5
159
100
AcDbEntity
  8
morsi oltre
 62
256
370
-1
  6
DASHED2
100
AcDbDimension
 10
118.4621673034187097
 20
31.7000000000000171
 30
0.0
 11
120.3371673034187097
 21
21.7000000000000313
 31
0.0
 70
0
 71
5
 72
0
 41
1.0
 42
3.1415926535897931
  1

  3
Standard
100
AcDbAlignedDimension
 13
112.5499999999999829
 23
11.7000000000000064
 33
0.0
 14
112.5499999999999829
 24
31.7000000000000171
 34
0.0
 50
270.0
100
AcDbRotatedDimension
  0
MTEXT
  5
15A
100
AcDbEntity
100
AcDbMText
  8
ipe estrema destra
 62
256
370
-1
  6
ByLayer
 10
108.6776859504132204
 20
81.6115702479338836
 30
0.0
 40
3.0
 41
100.0
 71
1
 72
0
  1
Ipe\~su\~2\~grani\~tutta\~scentrata\Pcon\~piastra\~in\~ingombro
  7
normallatin1
 50
0.0
 73
1
 44
1.0
  0
MTEXT
  5
15B
100
AcDbEntity
100
AcDbMText
  8
ipe destra
 62
256
370
-1
  6
ByLayer
 10
108.6776859504132204
 20
81.6115702479338836
 30
0.0
 40
3.0
 41
100.0
 71
1
 72
0
  1
Ipe\~su\~2\~grani\~tutta\~scentrata\~\~\Psenza\~piastra\~in\~ingombro
  7
normallatin1
 50
0.0
 73
1
 44
1.0
  0
LINE
  5
15C
100
AcDbEntity
100
AcDbLine
  8
morsi oltre
 62
256
370
-1
  6
DASHED
 10
137.0
 20
11.7000000000000064
 30
0.0
 11
137.0000000000000284
 21
31.7000000000000384
 31
0.0
  0
LINE
  5
15D
100
AcDbEntity
100
AcDbLine
  8
morsi oltre
 62
256
370
-1
  6
DASHED
 10
45.6000000000000085
 20
31.6999999999999957
 30
0.0
 11
45.6000000000000014
 21
11.6999999999999904
 31
0.0
  0
LINE
  5
15E
100
AcDbEntity
100
AcDbLine
  8
morsi estrema destra
 62
256
370
-1
  6
DASHED
 10
143.0999999999999943
 20
31.6999999999999993
 30
0.0
 11
143.0999999999999943
 21
11.6999999999999993
 31
0.0
  0
LINE
  5
15F
100
AcDbEntity
100
AcDbLine
  8
morsi estrema destra
 62
256
370
-1
  6
DASHED
 10
21.819834710743816
 20
11.6999999999999993
 30
0.0
 11
21.819834710743816
 21
31.6999999999999993
 31
0.0
  0
LINE
  5
160
100
AcDbEntity
100
AcDbLine
  8
morsi destra
 62
256
370
-1
  6
DASHED
 10
134.0999999999999943
 20
31.7000000000000028
 30
0.0
 11
134.0999999999999943
 21
11.7000000000000028
 31
0.0
  0
LINE
  5
161
100
AcDbEntity
100
AcDbLine
  8
morsi destra
 62
256
370
-1
  6
DASHED
 10
24.4499999999999993
 20
11.6999999999999993
 30
0.0
 11
24.4499999999999993
 21
31.6999999999999993
 31
0.0
  0
LINE
  5
162
100
AcDbEntity
100
AcDbLine
  8
morsi centrale
 62
256
370
-1
  6
DASHED
 10
23.1499999999999879
 20
11.6999999999999993
 30
0.0
 11
23.1499999999999879
 21
31.6999999999999993
 31
0.0
  0
LINE
  5
163
100
AcDbEntity
100
AcDbLine
  8
morsi centrale
 62
256
370
-1
  6
DASHED
 10
126.3500000000000085
 20
31.6999999999999993
 30
0.0
 11
126.3500000000000085
 21
11.6999999999999993
 31
0.0
  0
MTEXT
  5
164
100
AcDbEntity
100
AcDbMText
  8
ipe oltre
 62
256
370
-1
  6
ByLayer
 10
120.6776859504132347
 20
81.6115702479338836
 30
0.0
 40
3.0
 41
100.0
 71
1
 72
0
  1
Ipe\~molto\~scentrata\~\Pappoggiata\~su\~3\~grani.\PIl\~caso\~degenera\~su\~2\~grani
  7
normallatin1
 50
0.0
 73
1
 44
1.0
  0
LINE
  5
165
100
AcDbEntity
100
AcDbLine
  8
morsi 3 centrale
 62
256
370
-1
  6
ByLayer
 10
3.0500000000000034
 20
31.7000000000000028
 30
0.0
 11
3.0499999999999972
 21
11.7000000000000011
 31
0.0
  0
LINE
  5
166
100
AcDbEntity
100
AcDbLine
  8
morsi 3 centrale
 62
256
370
-1
  6
ByLayer
 10
70.0499999999999972
 20
11.6999999999999851
 30
0.0
 11
70.0499999999999972
 21
31.6999999999999815
 31
0.0
  0
LINE
  5
167
100
AcDbEntity
100
AcDbLine
  8
morsi 3 centrale
 62
256
370
-1
  6
ByLayer
 10
70.0499999999999972
 20
11.6999999999999851
 30
0.0
 11
43.0499999999999972
 21
11.6999999999999904
 31
0.0
  0
LINE
  5
168
100
AcDbEntity
100
AcDbLine
  8
morsi 3 centrale
 62
256
370
-1
  6
ByLayer
 10
43.0499999999999972
 20
11.6999999999999904
 30
0.0
 11
12.0
 21
11.6999999999999993
 31
0.0
  0
LINE
  5
169
100
AcDbEntity
100
AcDbLine
  8
morsi 3 centrale
 62
256
370
-1
  6
ByLayer
 10
12.0
 20
11.6999999999999993
 30
0.0
 11
3.0499999999999972
 21
11.7000000000000011
 31
0.0
  0
LINE
  5
16A
100
AcDbEntity
100
AcDbLine
  8
morsi 3 centrale
 62
256
370
-1
  6
ByLayer
 10
3.0500000000000034
 20
31.7000000000000028
 30
0.0
 11
12.0000000000000089
 21
31.7000000000000028
 31
0.0
  0
LINE
  5
16B
100
AcDbEntity
100
AcDbLine
  8
morsi 3 centrale
 62
256
370
-1
  6
ByLayer
 10
12.0000000000000089
 20
31.7000000000000028
 30
0.0
 11
43.0500000000000043
 21
31.6999999999999957
 31
0.0
  0
LINE
  5
16C
100
AcDbEntity
100
AcDbLine
  8
morsi 3 centrale
 62
256
370
-1
  6
ByLayer
 10
43.0500000000000043
 20
31.6999999999999957
 30
0.0
 11
70.0499999999999972
 21
31.6999999999999815
 31
0.0
  0
LINE
  5
16D
100
AcDbEntity
100
AcDbLine
  8
morsi 3 centrale
 62
256
370
-1
  6
DASHEDX2
 10
12.0
 20
11.6999999999999993
 30
0.0
 11
12.0000000000000089
 21
31.7000000000000028
 31
0.0
  0
MTEXT
  5
16E
100
AcDbEntity
100
AcDbMText
  8
morsi 3 centrale
 62
256
370
-1
  6
ByLayer
 10
-31.441141679190455
 20
52.5485372586936066
 30
0.0
 40
3.0
 41
100.0
 71
1
 72
0
  1
Morsi\~invertiti\~per\~ipe\~su\~3\~grani
  7
normallatin1
 50
0.0
 73
1
 44
1.0
  0
LINE
  5
16F
100
AcDbEntity
100
AcDbLine
  8
morsi 3 centrale
 62
256
370
-1
  6
DASHED
 10
45.6000000000000085
 20
31.6999999999999957
 30
0.0
 11
45.6000000000000014
 21
11.6999999999999904
 31
0.0
  0
LINE
  5
170
100
AcDbEntity
100
AcDbLine
  8
ipe 3 centrale
 62
256
370
-1
  6
ByLayer
 10
88.5
 20
6.0
 30
0.0
 11
116.0
 21
6.0
 31
0.0
  0
ARC
  5
171
100
AcDbEntity
  8
ipe 3 centrale
 62
256
370
-1
  6
ByLayer
100
AcDbCircle
 10
97.5500000000000114
 20
18.7000000000000028
 30
0.0
 40
7.0
100
AcDbArc
 50
180.0
 51
270.0
  0
ARC
  5
172
100
AcDbEntity
  8
ipe 3 centrale
 62
256
370
-1
  6
ByLayer
100
AcDbCircle
 10
79.4499999999999886
 20
18.7000000000000028
 30
0.0
 40
7.0
100
AcDbArc
 50
270.0
 51
0.0
  0
LINE
  5
173
100
AcDbEntity
100
AcDbLine
  8
ipe 3 centrale
 62
256
370
-1
  6
ByLayer
 10
97.5500000000000114
 20
11.6999999999999993
 30
0.0
 11
116.0
 21
11.6999999999999993
 31
0.0
  0
LINE
  5
174
100
AcDbEntity
100
AcDbLine
  8
ipe 3 centrale
 62
256
370
-1
  6
ByLayer
 10
61.0
 20
6.0
 30
0.0
 11
61.0
 21
11.6999999999999993
 31
0.0
  0
LINE
  5
175
100
AcDbEntity
100
AcDbLine
  8
ipe 3 centrale
 62
256
370
-1
  6
ByLayer
 10
116.0
 20
6.0
 30
0.0
 11
116.0
 21
11.6999999999999993
 31
0.0
  0
LINE
  5
176
100
AcDbEntity
100
AcDbLine
  8
ipe 3 centrale
 62
256
370
-1
  6
ByLayer
 10
61.0
 20
6.0
 30
0.0
 11
88.5
 21
6.0
 31
0.0
  0
LINE
  5
177
100
AcDbEntity
100
AcDbLine
  8
ipe 3 centrale
 62
256
370
-1
  6
CONTINUOUS
 10
90.5500000000000114
 20
18.7000000000000028
 30
0.0
 11
90.5500000000000114
 21
93.2999999999999972
 31
0.0
  0
LINE
  5
178
100
AcDbEntity
100
AcDbLine
  8
ipe 3 centrale
 62
256
370
-1
  6
CONTINUOUS
 10
86.4500000000000171
 20
18.7000000000000028
 30
0.0
 11
86.4500000000000171
 21
93.2999999999999972
 31
0.0
  0
LINE
  5
179
100
AcDbEntity
100
AcDbLine
  8
ipe 3 centrale
 62
256
370
-1
  6
ByLayer
 10
61.0
 20
11.6999999999999993
 30
0.0
 11
79.4499999999999886
 21
11.6999999999999993
 31
0.0
  0
LINE
  5
17A
100
AcDbEntity
100
AcDbLine
  8
ipe 3 centrale
 62
256
370
-1
  6
ByLayer
 10
61.0
 20
106.0
 30
0.0
 11
116.0
 21
106.0
 31
0.0
  0
LINE
  5
17B
100
AcDbEntity
100
AcDbLine
  8
ipe 3 centrale
 62
256
370
-1
  6
ByLayer
 10
61.0
 20
100.2999999999999972
 30
0.0
 11
61.0
 21
106.0
 31
0.0
  0
LINE
  5
17C
100
AcDbEntity
100
AcDbLine
  8
ipe 3 centrale
 62
256
370
-1
  6
ByLayer
 10
116.0
 20
100.2999999999999972
 30
0.0
 11
116.0
 21
106.0
 31
0.0
  0
ARC
  5
17D
100
AcDbEntity
  8
ipe 3 centrale
 62
256
370
-1
  6
ByLayer
100
AcDbCircle
 10
97.5500000000000114
 20
93.2999999999999972
 30
0.0
 40
7.0
100
AcDbArc
 50
90.0
 51
180.0
  0
ARC
  5
17E
100
AcDbEntity
  8
ipe 3 centrale
 62
256
370
-1
  6
ByLayer
100
AcDbCircle
 10
79.4500000000000171
 20
93.2999999999999972
 30
0.0
 40
7.0
100
AcDbArc
 50
360.0
 51
89.9999999999999858
  0
LINE
  5
17F
100
AcDbEntity
100
AcDbLine
  8
ipe 3 centrale
 62
256
370
-1
  6
ByLayer
 10
97.5500000000000114
 20
100.2999999999999972
 30
0.0
 11
116.0
 21
100.2999999999999972
 31
0.0
  0
LINE
  5
180
100
AcDbEntity
100
AcDbLine
  8
ipe 3 centrale
 62
256
370
-1
  6
ByLayer
 10
61.0
 20
100.2999999999999972
 30
0.0
 11
79.4500000000000171
 21
100.2999999999999972
 31
0.0
  0
LINE
  5
181
100
AcDbEntity
100
AcDbLine
  8
ipe 3 centrale
 62
256
370
-1
  6
ByLayer
 10
88.5
 20
6.0
 30
0.0
 11
116.0
 21
6.0
 31
0.0
  0
ARC
  5
182
100
AcDbEntity
  8
ipe 3 centrale
 62
256
370
-1
  6
ByLayer
100
AcDbCircle
 10
97.5500000000000114
 20
18.7000000000000028
 30
0.0
 40
7.0
100
AcDbArc
 50
180.0
 51
270.0
  0
ARC
  5
183
100
AcDbEntity
  8
ipe 3 centrale
 62
256
370
-1
  6
ByLayer
100
AcDbCircle
 10
79.4499999999999886
 20
18.7000000000000028
 30
0.0
 40
7.0
100
AcDbArc
 50
270.0
 51
0.0
  0
LINE
  5
184
100
AcDbEntity
100
AcDbLine
  8
ipe 3 centrale
 62
256
370
-1
  6
ByLayer
 10
97.5500000000000114
 20
11.6999999999999993
 30
0.0
 11
116.0
 21
11.6999999999999993
 31
0.0
  0
LINE
  5
185
100
AcDbEntity
100
AcDbLine
  8
ipe 3 centrale
 62
256
370
-1
  6
ByLayer
 10
61.0
 20
6.0
 30
0.0
 11
61.0
 21
11.6999999999999993
 31
0.0
  0
LINE
  5
186
100
AcDbEntity
100
AcDbLine
  8
ipe 3 centrale
 62
256
370
-1
  6
ByLayer
 10
116.0
 20
6.0
 30
0.0
 11
116.0
 21
11.6999999999999993
 31
0.0
  0
LINE
  5
187
100
AcDbEntity
100
AcDbLine
  8
ipe 3 centrale
 62
256
370
-1
  6
ByLayer
 10
61.0
 20
6.0
 30
0.0
 11
88.5
 21
6.0
 31
0.0
  0
LINE
  5
188
100
AcDbEntity
100
AcDbLine
  8
ipe 3 centrale
 62
256
370
-1
  6
CONTINUOUS
 10
90.5500000000000114
 20
18.7000000000000028
 30
0.0
 11
90.5500000000000114
 21
93.2999999999999972
 31
0.0
  0
LINE
  5
189
100
AcDbEntity
100
AcDbLine
  8
ipe 3 centrale
 62
256
370
-1
  6
CONTINUOUS
 10
86.4500000000000171
 20
18.7000000000000028
 30
0.0
 11
86.4500000000000171
 21
93.2999999999999972
 31
0.0
  0
LINE
  5
18A
100
AcDbEntity
100
AcDbLine
  8
ipe 3 centrale
 62
256
370
-1
  6
ByLayer
 10
61.0
 20
11.6999999999999993
 30
0.0
 11
79.4499999999999886
 21
11.6999999999999993
 31
0.0
  0
LINE
  5
18B
100
AcDbEntity
100
AcDbLine
  8
ipe 3 centrale
 62
256
370
-1
  6
ByLayer
 10
61.0
 20
106.0
 30
0.0
 11
116.0
 21
106.0
 31
0.0
  0
LINE
  5
18C
100
AcDbEntity
100
AcDbLine
  8
ipe 3 centrale
 62
256
370
-1
  6
ByLayer
 10
61.0
 20
100.2999999999999972
 30
0.0
 11
61.0
 21
106.0
 31
0.0
  0
LINE
  5
18D
100
AcDbEntity
100
AcDbLine
  8
ipe 3 centrale
 62
256
370
-1
  6
ByLayer
 10
116.0
 20
100.2999999999999972
 30
0.0
 11
116.0
 21
106.0
 31
0.0
  0
ARC
  5
18E
100
AcDbEntity
  8
ipe 3 centrale
 62
256
370
-1
  6
ByLayer
100
AcDbCircle
 10
97.5500000000000114
 20
93.2999999999999972
 30
0.0
 40
7.0
100
AcDbArc
 50
90.0
 51
180.0
  0
ARC
  5
18F
100
AcDbEntity
  8
ipe 3 centrale
 62
256
370
-1
  6
ByLayer
100
AcDbCircle
 10
79.4500000000000171
 20
93.2999999999999972
 30
0.0
 40
7.0
100
AcDbArc
 50
360.0
 51
89.9999999999999858
  0
LINE
  5
190
100
AcDbEntity
100
AcDbLine
  8
ipe 3 centrale
 62
256
370
-1
  6
ByLayer
 10
97.5500000000000114
 20
100.2999999999999972
 30
0.0
 11
116.0
 21
100.2999999999999972
 31
0.0
  0
LINE
  5
191
100
AcDbEntity
100
AcDbLine
  8
ipe 3 centrale
 62
256
370
-1
  6
ByLayer
 10
61.0
 20
100.2999999999999972
 30
0.0
 11
79.4500000000000171
 21
100.2999999999999972
 31
0.0
  0
LINE
  5
192
100
AcDbEntity
100
AcDbLine
  8
morsi 3 centrale
 62
256
370
-1
  6
ByLayer
 10
173.9499999999999886
 20
31.6999999999999993
 30
0.0
 11
173.9499999999999886
 21
11.6999999999999975
 31
0.0
  0
LINE
  5
193
100
AcDbEntity
100
AcDbLine
  8
morsi 3 centrale
 62
256
370
-1
  6
ByLayer
 10
106.9499999999999886
 20
31.7000000000000171
 30
0.0
 11
106.9499999999999886
 21
11.7000000000000064
 31
0.0
  0
LINE
  5
194
100
AcDbEntity
100
AcDbLine
  8
morsi 3 centrale
 62
256
370
-1
  6
ByLayer
 10
173.9499999999999886
 20
11.6999999999999975
 30
0.0
 11
165.0
 21
11.6999999999999993
 31
0.0
  0
LINE
  5
195
100
AcDbEntity
100
AcDbLine
  8
morsi 3 centrale
 62
256
370
-1
  6
ByLayer
 10
165.0
 20
11.6999999999999993
 30
0.0
 11
133.9499999999999886
 21
11.7000000000000028
 31
0.0
  0
LINE
  5
196
100
AcDbEntity
100
AcDbLine
  8
morsi 3 centrale
 62
256
370
-1
  6
ByLayer
 10
133.9499999999999886
 20
11.7000000000000028
 30
0.0
 11
106.9499999999999886
 21
11.7000000000000064
 31
0.0
  0
LINE
  5
197
100
AcDbEntity
100
AcDbLine
  8
morsi 3 centrale
 62
256
370
-1
  6
ByLayer
 10
106.9499999999999886
 20
31.7000000000000171
 30
0.0
 11
133.9500000000000171
 21
31.7000000000000348
 31
0.0
  0
LINE
  5
198
100
AcDbEntity
100
AcDbLine
  8
morsi 3 centrale
 62
256
370
-1
  6
ByLayer
 10
133.9500000000000171
 20
31.7000000000000348
 30
0.0
 11
165.0
 21
31.6999999999999993
 31
0.0
  0
LINE
  5
199
100
AcDbEntity
100
AcDbLine
  8
morsi 3 centrale
 62
256
370
-1
  6
ByLayer
 10
165.0
 20
31.6999999999999993
 30
0.0
 11
173.9499999999999886
 21
31.6999999999999993
 31
0.0
  0
LINE
  5
19A
100
AcDbEntity
100
AcDbLine
  8
morsi 3 centrale
 62
256
370
-1
  6
DASHEDX2
 10
165.0
 20
31.6999999999999993
 30
0.0
 11
165.0
 21
11.6999999999999993
 31
0.0
  0
DIMENSION
  5
19B
100
AcDbEntity
  8
morsi 3 centrale
 62
256
370
-1
  6
DASHED2
100
AcDbDimension
 10
112.8621673034187154
 20
31.7000000000000171
 30
0.0
 11
114.7371673034187154
 21
21.7000000000000313
 31
0.0
 70
0
 71
5
 72
0
 41
1.0
 42
3.1415926535897931
  1

  3
Standard
100
AcDbAlignedDimension
 13
106.9499999999999886
 23
11.7000000000000064
 33
0.0
 14
106.9499999999999886
 24
31.7000000000000171
 34
0.0
 50
270.0
100
AcDbRotatedDimension
  0
LINE
  5
19C
100
AcDbEntity
100
AcDbLine
  8
morsi 3 centrale
 62
256
370
-1
  6
DASHED
 10
131.4000000000000057
 20
11.7000000000000064
 30
0.0
 11
131.4000000000000341
 21
31.7000000000000384
 31
0.0
  0
MTEXT
  5
19D
100
AcDbEntity
100
AcDbMText
  8
ipe 3 centrale
 62
256
370
-1
  6
ByLayer
 10
114.6776859504132347
 20
81.6115702479338836
 30
0.0
 40
3.0
 41
100.0
 71
1
 72
0
  1
Ipe\~scentrata\~oltre\~i\~2\~grani\Pappoggiata\~su\~3\~grani.\P
  7
normallatin1
 50
0.0
 73
1
 44
1.0
  0
LINE
  5
19E
100
AcDbEntity
100
AcDbLine
  8
ipe 3 centrale
 62
256
370
-1
  6
DASHED
 10
64.5
 20
-31.0443932626252526
 30
0.0
 11
54.5
 21
-31.0443932626252526
 31
0.0
  0
ARC
  5
19F
100
AcDbEntity
  8
morsi fronte
 62
256
370
-1
  6
ByLayer
100
AcDbCircle
 10
30.9499999999999993
 20
-45.6281000000000034
 30
0.0
 40
6.5
100
AcDbArc
 50
90.0
 51
270.0
  0
LINE
  5
1A0
100
AcDbEntity
100
AcDbLine
  8
morsi fronte
 62
256
370
-1
  6
ByLayer
 10
30.9499999999999993
 20
-39.1281086048524145
 30
0.0
 11
51.5499999999999901
 21
-39.1281086048524145
 31
0.0
  0
LINE
  5
1A1
100
AcDbEntity
100
AcDbLine
  8
morsi fronte
 62
256
370
-1
  6
ByLayer
 10
30.9499999999999993
 20
-52.1281086048524145
 30
0.0
 11
51.5499999999999829
 21
-52.1281086048524145
 31
0.0
  0
POINT
  5
1A2
100
AcDbEntity
100
AcDbPoint
  8
morsi fronte
 62
256
370
-1
  6
ByLayer
 10
30.9499999999999993
 20
-45.6281000000000034
 30
0.0
  0
DIMENSION
  5
1A3
100
AcDbEntity
  8
morsi fronte
 62
21
370
-1
  6
ByLayer
100
AcDbDimension
 10
67.0
 20
-55.4364914184505508
 30
0.0
 11
59.2749999999999915
 21
-53.5614914184505508
 31
0.0
 70
0
 71
5
 72
0
 41
1.0
 42
0.0
  1

  3
Standard
100
AcDbAlignedDimension
 13
51.5499999999999901
 23
-45.6281086048524145
 33
0.0
 14
67.0
 24
-60.6281086048524145
 34
0.0
 50
0.0
100
AcDbRotatedDimension
  0
DIMENSION
  5
1A4
100
AcDbEntity
  8
morsi fronte
 62
21
370
-1
  6
ByLayer
100
AcDbDimension
 10
51.5499999999999901
 20
-36.3834638824645182
 30
0.0
 11
41.2499999999999929
 21
-34.5084638824645182
 31
0.0
 70
0
 71
5
 72
1
 41
1.0
 42
0.0
  1

  3
Standard
100
AcDbAlignedDimension
 13
30.9499999999999993
 23
-45.6281000000000034
 33
0.0
 14
51.5499999999999901
 24
-45.6281086048524145
 34
0.0
 50
0.0
100
AcDbRotatedDimension
  0
DIMENSION
  5
1A5
100
AcDbEntity
  8
morsi fronte
 62
21
370
-1
  6
ByLayer
100
AcDbDimension
 10
77.95652456252067
 20
-60.6281086048524145
 30
0.0
 11
76.08152456252067
 21
-45.6281086048524145
 31
0.0
 70
0
 71
5
 72
1
 41
1.0
 42
0.0
  1

  3
Standard
100
AcDbAlignedDimension
 13
67.0
 23
-30.6281086048524109
 33
0.0
 14
67.0
 24
-60.6281086048524145
 34
0.0
 50
90.0
100
AcDbRotatedDimension
  0
DIMENSION
  5
1A6
100
AcDbEntity
  8
morsi fronte
 62
8
370
-1
  6
ByLayer
100
AcDbDimension
 10
-6.3040655241894017
 20
-60.6281086048524145
 30
0.0
 11
-8.1790655241894008
 21
-53.128104302426209
 31
0.0
 70
0
 71
5
 72
1
 41
1.0
 42
0.0
  1

  3
Standard
100
AcDbAlignedDimension
 13
30.9499999999999993
 23
-45.6281000000000034
 33
0.0
 14
-0.0000000000000044
 24
-60.6281086048524145
 34
0.0
 50
90.0
100
AcDbRotatedDimension
  0
DIMENSION
  5
1A7
100
AcDbEntity
  8
morsi fronte
 62
8
370
-1
  6
ByLayer
100
AcDbDimension
 10
28.4132808697356154
 20
-52.3930911329244395
 30
0.0
 11
29.476418120404702
 21
-48.79477705738298
 31
0.0
 70
1
 71
5
 72
1
 41
1.0
 42
0.0
  1

  3
Standard
100
AcDbAlignedDimension
 13
30.9499999999999993
 23
-45.6281000000000034
 33
0.0
 14
26.2396264796593321
 24
-50.1072049662709986
 34
0.0
  0
DIMENSION
  5
1A8
100
AcDbEntity
  8
morsi fronte
 62
8
370
-1
  6
ByLayer
100
AcDbDimension
 10
-0.0000000000000047
 20
-65.7423976094037528
 30
0.0
 11
15.4749999999999996
 21
-63.8673976094037528
 31
0.0
 70
0
 71
5
 72
1
 41
1.0
 42
0.0
  1

  3
Standard
100
AcDbAlignedDimension
 13
30.9499999999999993
 23
-45.6281000000000034
 33
0.0
 14
-0.0000000000000044
 24
-60.6281086048524145
 34
0.0
 50
0.0
100
AcDbRotatedDimension
  0
ENDSEC
  0
SECTION
  2
OBJECTS
  0
DICTIONARY
  5
C
100
AcDbDictionary
280
0
281
1
  3
ACAD_GROUP
350
D
  3
ACAD_LAYOUT
350
1A
  3
ACAD_MLINESTYLE
350
17
  3
ACAD_PLOTSETTINGS
350
19
  3
ACAD_PLOTSTYLENAME
350
E
  3
AcDbVariableDictionary
350
1A9
  0
DICTIONARY
  5
D
100
AcDbDictionary
280
0
281
1
  0
ACDBDICTIONARYWDFLT
  5
E
100
AcDbDictionary
281
1
  3
Normal
350
F
100
AcDbDictionaryWithDefault
340
F
  0
ACDBPLACEHOLDER
  5
F
  0
DICTIONARY
  5
17
100
AcDbDictionary
280
0
281
1
  3
Standard
350
18
  0
MLINESTYLE
  5
18
100
AcDbMlineStyle
  2
STANDARD
 70
0
  3

 62
256
 51
90.0
 52
90.0
 71
2
 49
0.5
 62
256
  6
BYLAYER
 49
-0.5
 62
256
  6
BYLAYER
  0
DICTIONARY
  5
19
100
AcDbDictionary
280
0
281
1
  0
DICTIONARY
  5
1A
100
AcDbDictionary
281
1
  3
Layout1
350
1E
  3
Layout2
350
26
  3
Model
350
22
  0
LAYOUT
  5
1E
100
AcDbPlotSettings
  1

  2
C:\Program Files\AutoCAD 2002\plotters\DWF ePlot (optimized for plotting).pc3
  4

  6

 40
0.0
 41
0.0
 42
0.0
 43
0.0
 44
0.0
 45
0.0
 46
0.0
 47
0.0
 48
0.0
 49
0.0
140
0.0
141
0.0
142
1.0
143
1.0
 70
688
 72
0
 73
0
 74
5
  7

 75
16
147
1.0
148
0.0
149
0.0
100
AcDbLayout
  1
Layout1
 70
1
 71
1
 10
0.0
 20
0.0
 11
420.0
 21
297.0
 12
0.0
 22
0.0
 32
0.0
 14
100000000000000000000.0
 24
100000000000000000000.0
 34
100000000000000000000.0
 15
-100000000000000000000.0
 25
-100000000000000000000.0
 35
-100000000000000000000.0
146
0.0
 13
0.0
 23
0.0
 33
0.0
 16
1.0
 26
0.0
 36
0.0
 17
0.0
 27
1.0
 37
0.0
 76
0
330
1B
  0
LAYOUT
  5
22
100
AcDbPlotSettings
  1

  2
C:\Program Files\AutoCAD 2002\plotters\DWF ePlot (optimized for plotting).pc3
  4

  6

 40
0.0
 41
0.0
 42
0.0
 43
0.0
 44
0.0
 45
0.0
 46
0.0
 47
0.0
 48
0.0
 49
0.0
140
0.0
141
0.0
142
1.0
143
1.0
 70
1712
 72
0
 73
0
 74
0
  7

 75
0
147
1.0
148
0.0
149
0.0
100
AcDbLayout
  1
Model
 70
1
 71
0
 10
0.0
 20
0.0
 11
12.0
 21
9.0
 12
0.0
 22
0.0
 32
0.0
 14
0.0
 24
0.0
 34
0.0
 15
0.0
 25
0.0
 35
0.0
146
0.0
 13
0.0
 23
0.0
 33
0.0
 16
1.0
 26
0.0
 36
0.0
 17
0.0
 27
1.0
 37
0.0
 76
0
330
1F
  0
LAYOUT
  5
26
100
AcDbPlotSettings
  1

  2
C:\Program Files\AutoCAD 2002\plotters\DWF ePlot (optimized for plotting).pc3
  4

  6

 40
0.0
 41
0.0
 42
0.0
 43
0.0
 44
0.0
 45
0.0
 46
0.0
 47
0.0
 48
0.0
 49
0.0
140
0.0
141
0.0
142
1.0
143
1.0
 70
688
 72
0
 73
0
 74
5
  7

 75
16
147
1.0
148
0.0
149
0.0
100
AcDbLayout
  1
Layout2
 70
1
 71
2
 10
0.0
 20
0.0
 11
12.0
 21
9.0
 12
0.0
 22
0.0
 32
0.0
 14
0.0
 24
0.0
 34
0.0
 15
0.0
 25
0.0
 35
0.0
146
0.0
 13
0.0
 23
0.0
 33
0.0
 16
1.0
 26
0.0
 36
0.0
 17
0.0
 27
1.0
 37
0.0
 76
0
330
23
  0
DICTIONARY
  5
1A9
100
AcDbDictionary
281
1
  3
DIMASSOC
350
1AB
  3
HIDETEXT
350
1AA
  0
DICTIONARYVAR
  5
1AA
100
DictionaryVariables
280
0
  1
2
  0
DICTIONARYVAR
  5
1AB
100
DictionaryVariables
280
0
  1
1
  0
ENDSEC
  0
EOF
