  0
SECTION
  2
BLOCKS
  0
ENDSEC
  0
SECTION
  2
ENTITIES
  0
LINE
  8
0
 10
4.7
 11
4.7
 20
-202.7
 21
-200.7
  0
LINE
  8
0
 10
4.7
 11
4.745
 20
-200.7
 21
-200.274
  0
LINE
  8
0
 10
4.745
 11
4.877
 20
-200.274
 21
-199.866
  0
LINE
  8
0
 10
4.877
 11
5.092
 20
-199.866
 21
-199.495
  0
LINE
  8
0
 10
5.092
 11
5.378
 20
-199.495
 21
-199.177
  0
LINE
  8
0
 10
5.378
 11
5.725
 20
-199.177
 21
-198.925
  0
LINE
  8
0
 10
5.725
 11
6.117
 20
-198.925
 21
-198.75
  0
LINE
  8
0
 10
6.117
 11
6.536
 20
-198.75
 21
-198.661
  0
LINE
  8
0
 10
6.536
 11
6.964
 20
-198.661
 21
-198.661
  0
LINE
  8
0
 10
6.964
 11
7.383
 20
-198.661
 21
-198.75
  0
LINE
  8
0
 10
7.383
 11
7.775
 20
-198.75
 21
-198.925
  0
LINE
  8
0
 10
7.775
 11
8.122
 20
-198.925
 21
-199.177
  0
LINE
  8
0
 10
8.122
 11
8.408
 20
-199.177
 21
-199.495
  0
LINE
  8
0
 10
8.408
 11
8.623
 20
-199.495
 21
-199.866
  0
LINE
  8
0
 10
8.623
 11
8.755
 20
-199.866
 21
-200.274
  0
LINE
  8
0
 10
8.755
 11
8.8
 20
-200.274
 21
-200.7
  0
LINE
  8
0
 10
8.8
 11
8.8
 20
-200.7
 21
-202.7
  0
LINE
  8
0
 10
8.8
 11
8.755
 20
-202.7
 21
-203.126
  0
LINE
  8
0
 10
8.755
 11
8.623
 20
-203.126
 21
-203.534
  0
LINE
  8
0
 10
8.623
 11
8.408
 20
-203.534
 21
-203.905
  0
LINE
  8
0
 10
8.408
 11
8.122
 20
-203.905
 21
-204.223
  0
LINE
  8
0
 10
8.122
 11
7.775
 20
-204.223
 21
-204.475
  0
LINE
  8
0
 10
7.775
 11
7.383
 20
-204.475
 21
-204.65
  0
LINE
  8
0
 10
7.383
 11
6.964
 20
-204.65
 21
-204.739
  0
LINE
  8
0
 10
6.964
 11
6.536
 20
-204.739
 21
-204.739
  0
LINE
  8
0
 10
6.536
 11
6.117
 20
-204.739
 21
-204.65
  0
LINE
  8
0
 10
6.117
 11
5.725
 20
-204.65
 21
-204.475
  0
LINE
  8
0
 10
5.725
 11
5.378
 20
-204.475
 21
-204.223
  0
LINE
  8
0
 10
5.378
 11
5.092
 20
-204.223
 21
-203.905
  0
LINE
  8
0
 10
5.092
 11
4.877
 20
-203.905
 21
-203.534
  0
LINE
  8
0
 10
4.877
 11
4.745
 20
-203.534
 21
-203.126
  0
LINE
  8
0
 10
4.745
 11
4.7
 20
-203.126
 21
-202.7
  0
LINE
  8
0
 10
4.7
 11
4.7
 20
-80.3
 21
-78.3
  0
LINE
  8
0
 10
4.7
 11
4.745
 20
-78.3
 21
-77.874
  0
LINE
  8
0
 10
4.745
 11
4.877
 20
-77.874
 21
-77.466
  0
LINE
  8
0
 10
4.877
 11
5.092
 20
-77.466
 21
-77.095
  0
LINE
  8
0
 10
5.092
 11
5.378
 20
-77.095
 21
-76.777
  0
LINE
  8
0
 10
5.378
 11
5.725
 20
-76.777
 21
-76.525
  0
LINE
  8
0
 10
5.725
 11
6.117
 20
-76.525
 21
-76.35
  0
LINE
  8
0
 10
6.117
 11
6.536
 20
-76.35
 21
-76.261
  0
LINE
  8
0
 10
6.536
 11
6.964
 20
-76.261
 21
-76.261
  0
LINE
  8
0
 10
6.964
 11
7.383
 20
-76.261
 21
-76.35
  0
LINE
  8
0
 10
7.383
 11
7.775
 20
-76.35
 21
-76.525
  0
LINE
  8
0
 10
7.775
 11
8.122
 20
-76.525
 21
-76.777
  0
LINE
  8
0
 10
8.122
 11
8.408
 20
-76.777
 21
-77.095
  0
LINE
  8
0
 10
8.408
 11
8.623
 20
-77.095
 21
-77.466
  0
LINE
  8
0
 10
8.623
 11
8.755
 20
-77.466
 21
-77.874
  0
LINE
  8
0
 10
8.755
 11
8.8
 20
-77.874
 21
-78.3
  0
LINE
  8
0
 10
8.8
 11
8.8
 20
-78.3
 21
-80.3
  0
LINE
  8
0
 10
8.8
 11
8.755
 20
-80.3
 21
-80.726
  0
LINE
  8
0
 10
8.755
 11
8.623
 20
-80.726
 21
-81.134
  0
LINE
  8
0
 10
8.623
 11
8.408
 20
-81.134
 21
-81.505
  0
LINE
  8
0
 10
8.408
 11
8.122
 20
-81.505
 21
-81.823
  0
LINE
  8
0
 10
8.122
 11
7.775
 20
-81.823
 21
-82.075
  0
LINE
  8
0
 10
7.775
 11
7.383
 20
-82.075
 21
-82.25
  0
LINE
  8
0
 10
7.383
 11
6.964
 20
-82.25
 21
-82.339
  0
LINE
  8
0
 10
6.964
 11
6.536
 20
-82.339
 21
-82.339
  0
LINE
  8
0
 10
6.536
 11
6.117
 20
-82.339
 21
-82.25
  0
LINE
  8
0
 10
6.117
 11
5.725
 20
-82.25
 21
-82.075
  0
LINE
  8
0
 10
5.725
 11
5.378
 20
-82.075
 21
-81.823
  0
LINE
  8
0
 10
5.378
 11
5.092
 20
-81.823
 21
-81.505
  0
LINE
  8
0
 10
5.092
 11
4.877
 20
-81.505
 21
-81.134
  0
LINE
  8
0
 10
4.877
 11
4.745
 20
-81.134
 21
-80.726
  0
LINE
  8
0
 10
4.745
 11
4.7
 20
-80.726
 21
-80.3
  0
LINE
  8
0
 10
38.75
 11
38.75
 20
-274
 21
-272
  0
LINE
  8
0
 10
38.75
 11
38.795
 20
-272
 21
-271.574
  0
LINE
  8
0
 10
38.795
 11
38.927
 20
-271.574
 21
-271.166
  0
LINE
  8
0
 10
38.927
 11
39.142
 20
-271.166
 21
-270.795
  0
LINE
  8
0
 10
39.142
 11
39.428
 20
-270.795
 21
-270.477
  0
LINE
  8
0
 10
39.428
 11
39.775
 20
-270.477
 21
-270.225
  0
LINE
  8
0
 10
39.775
 11
40.167
 20
-270.225
 21
-270.05
  0
LINE
  8
0
 10
40.167
 11
40.586
 20
-270.05
 21
-269.961
  0
LINE
  8
0
 10
40.586
 11
41.014
 20
-269.961
 21
-269.961
  0
LINE
  8
0
 10
41.014
 11
41.433
 20
-269.961
 21
-270.05
  0
LINE
  8
0
 10
41.433
 11
41.825
 20
-270.05
 21
-270.225
  0
LINE
  8
0
 10
41.825
 11
42.172
 20
-270.225
 21
-270.477
  0
LINE
  8
0
 10
42.172
 11
42.458
 20
-270.477
 21
-270.795
  0
LINE
  8
0
 10
42.458
 11
42.673
 20
-270.795
 21
-271.166
  0
LINE
  8
0
 10
42.673
 11
42.805
 20
-271.166
 21
-271.574
  0
LINE
  8
0
 10
42.805
 11
42.85
 20
-271.574
 21
-272
  0
LINE
  8
0
 10
42.85
 11
42.85
 20
-272
 21
-274
  0
LINE
  8
0
 10
42.85
 11
42.805
 20
-274
 21
-274.426
  0
LINE
  8
0
 10
42.805
 11
42.673
 20
-274.426
 21
-274.834
  0
LINE
  8
0
 10
42.673
 11
42.458
 20
-274.834
 21
-275.205
  0
LINE
  8
0
 10
42.458
 11
42.172
 20
-275.205
 21
-275.523
  0
LINE
  8
0
 10
42.172
 11
41.825
 20
-275.523
 21
-275.775
  0
LINE
  8
0
 10
41.825
 11
41.433
 20
-275.775
 21
-275.95
  0
LINE
  8
0
 10
41.433
 11
41.014
 20
-275.95
 21
-276.039
  0
LINE
  8
0
 10
41.014
 11
40.586
 20
-276.039
 21
-276.039
  0
LINE
  8
0
 10
40.586
 11
40.167
 20
-276.039
 21
-275.95
  0
LINE
  8
0
 10
40.167
 11
39.775
 20
-275.95
 21
-275.775
  0
LINE
  8
0
 10
39.775
 11
39.428
 20
-275.775
 21
-275.523
  0
LINE
  8
0
 10
39.428
 11
39.142
 20
-275.523
 21
-275.205
  0
LINE
  8
0
 10
39.142
 11
38.927
 20
-275.205
 21
-274.834
  0
LINE
  8
0
 10
38.927
 11
38.795
 20
-274.834
 21
-274.426
  0
LINE
  8
0
 10
38.795
 11
38.75
 20
-274.426
 21
-274
  0
LINE
  8
0
 10
38.75
 11
38.75
 20
-9
 21
-7
  0
LINE
  8
0
 10
38.75
 11
38.795
 20
-7
 21
-6.574
  0
LINE
  8
0
 10
38.795
 11
38.927
 20
-6.574
 21
-6.166
  0
LINE
  8
0
 10
38.927
 11
39.142
 20
-6.166
 21
-5.795
  0
LINE
  8
0
 10
39.142
 11
39.428
 20
-5.795
 21
-5.477
  0
LINE
  8
0
 10
39.428
 11
39.775
 20
-5.477
 21
-5.225
  0
LINE
  8
0
 10
39.775
 11
40.167
 20
-5.225
 21
-5.05
  0
LINE
  8
0
 10
40.167
 11
40.586
 20
-5.05
 21
-4.961
  0
LINE
  8
0
 10
40.586
 11
41.014
 20
-4.961
 21
-4.961
  0
LINE
  8
0
 10
41.014
 11
41.433
 20
-4.961
 21
-5.05
  0
LINE
  8
0
 10
41.433
 11
41.825
 20
-5.05
 21
-5.225
  0
LINE
  8
0
 10
41.825
 11
42.172
 20
-5.225
 21
-5.477
  0
LINE
  8
0
 10
42.172
 11
42.458
 20
-5.477
 21
-5.795
  0
LINE
  8
0
 10
42.458
 11
42.673
 20
-5.795
 21
-6.166
  0
LINE
  8
0
 10
42.673
 11
42.805
 20
-6.166
 21
-6.574
  0
LINE
  8
0
 10
42.805
 11
42.85
 20
-6.574
 21
-7
  0
LINE
  8
0
 10
42.85
 11
42.85
 20
-7
 21
-9
  0
LINE
  8
0
 10
42.85
 11
42.805
 20
-9
 21
-9.426
  0
LINE
  8
0
 10
42.805
 11
42.673
 20
-9.426
 21
-9.834
  0
LINE
  8
0
 10
42.673
 11
42.458
 20
-9.834
 21
-10.205
  0
LINE
  8
0
 10
42.458
 11
42.172
 20
-10.205
 21
-10.523
  0
LINE
  8
0
 10
42.172
 11
41.825
 20
-10.523
 21
-10.775
  0
LINE
  8
0
 10
41.825
 11
41.433
 20
-10.775
 21
-10.95
  0
LINE
  8
0
 10
41.433
 11
41.014
 20
-10.95
 21
-11.039
  0
LINE
  8
0
 10
41.014
 11
40.586
 20
-11.039
 21
-11.039
  0
LINE
  8
0
 10
40.586
 11
40.167
 20
-11.039
 21
-10.95
  0
LINE
  8
0
 10
40.167
 11
39.775
 20
-10.95
 21
-10.775
  0
LINE
  8
0
 10
39.775
 11
39.428
 20
-10.775
 21
-10.523
  0
LINE
  8
0
 10
39.428
 11
39.142
 20
-10.523
 21
-10.205
  0
LINE
  8
0
 10
39.142
 11
38.927
 20
-10.205
 21
-9.834
  0
LINE
  8
0
 10
38.927
 11
38.795
 20
-9.834
 21
-9.426
  0
LINE
  8
0
 10
38.795
 11
38.75
 20
-9.426
 21
-9
  0
LINE
  8
0
 10
70
 11
70
 20
-26.5
 21
-14.5
  0
LINE
  8
0
 10
70
 11
74
 20
-14.5
 21
-14.5
  0
LINE
  8
0
 10
74
 11
74
 20
-14.5
 21
-26.5
  0
LINE
  8
0
 10
74
 11
70
 20
-26.5
 21
-26.5
  0
LINE
  8
0
 10
100
 11
100
 20
-266.5
 21
-254.5
  0
LINE
  8
0
 10
100
 11
104
 20
-254.5
 21
-254.5
  0
LINE
  8
0
 10
104
 11
104
 20
-254.5
 21
-266.5
  0
LINE
  8
0
 10
104
 11
100
 20
-266.5
 21
-266.5
  0
LINE
  8
0
 10
130
 11
130
 20
-26.5
 21
-14.5
  0
LINE
  8
0
 10
130
 11
134
 20
-14.5
 21
-14.5
  0
LINE
  8
0
 10
134
 11
134
 20
-14.5
 21
-26.5
  0
LINE
  8
0
 10
134
 11
130
 20
-26.5
 21
-26.5
  0
LINE
  8
0
 10
161.15
 11
161.15
 20
-274
 21
-272
  0
LINE
  8
0
 10
161.15
 11
161.195
 20
-272
 21
-271.574
  0
LINE
  8
0
 10
161.195
 11
161.327
 20
-271.574
 21
-271.166
  0
LINE
  8
0
 10
161.327
 11
161.542
 20
-271.166
 21
-270.795
  0
LINE
  8
0
 10
161.542
 11
161.828
 20
-270.795
 21
-270.477
  0
LINE
  8
0
 10
161.828
 11
162.175
 20
-270.477
 21
-270.225
  0
LINE
  8
0
 10
162.175
 11
162.567
 20
-270.225
 21
-270.05
  0
LINE
  8
0
 10
162.567
 11
162.986
 20
-270.05
 21
-269.961
  0
LINE
  8
0
 10
162.986
 11
163.414
 20
-269.961
 21
-269.961
  0
LINE
  8
0
 10
163.414
 11
163.833
 20
-269.961
 21
-270.05
  0
LINE
  8
0
 10
163.833
 11
164.225
 20
-270.05
 21
-270.225
  0
LINE
  8
0
 10
164.225
 11
164.572
 20
-270.225
 21
-270.477
  0
LINE
  8
0
 10
164.572
 11
164.858
 20
-270.477
 21
-270.795
  0
LINE
  8
0
 10
164.858
 11
165.073
 20
-270.795
 21
-271.166
  0
LINE
  8
0
 10
165.073
 11
165.205
 20
-271.166
 21
-271.574
  0
LINE
  8
0
 10
165.205
 11
165.25
 20
-271.574
 21
-272
  0
LINE
  8
0
 10
165.25
 11
165.25
 20
-272
 21
-274
  0
LINE
  8
0
 10
165.25
 11
165.205
 20
-274
 21
-274.426
  0
LINE
  8
0
 10
165.205
 11
165.073
 20
-274.426
 21
-274.834
  0
LINE
  8
0
 10
165.073
 11
164.858
 20
-274.834
 21
-275.205
  0
LINE
  8
0
 10
164.858
 11
164.572
 20
-275.205
 21
-275.523
  0
LINE
  8
0
 10
164.572
 11
164.225
 20
-275.523
 21
-275.775
  0
LINE
  8
0
 10
164.225
 11
163.833
 20
-275.775
 21
-275.95
  0
LINE
  8
0
 10
163.833
 11
163.414
 20
-275.95
 21
-276.039
  0
LINE
  8
0
 10
163.414
 11
162.986
 20
-276.039
 21
-276.039
  0
LINE
  8
0
 10
162.986
 11
162.567
 20
-276.039
 21
-275.95
  0
LINE
  8
0
 10
162.567
 11
162.175
 20
-275.95
 21
-275.775
  0
LINE
  8
0
 10
162.175
 11
161.828
 20
-275.775
 21
-275.523
  0
LINE
  8
0
 10
161.828
 11
161.542
 20
-275.523
 21
-275.205
  0
LINE
  8
0
 10
161.542
 11
161.327
 20
-275.205
 21
-274.834
  0
LINE
  8
0
 10
161.327
 11
161.195
 20
-274.834
 21
-274.426
  0
LINE
  8
0
 10
161.195
 11
161.15
 20
-274.426
 21
-274
  0
LINE
  8
0
 10
161.15
 11
161.15
 20
-9
 21
-7
  0
LINE
  8
0
 10
161.15
 11
161.195
 20
-7
 21
-6.574
  0
LINE
  8
0
 10
161.195
 11
161.327
 20
-6.574
 21
-6.166
  0
LINE
  8
0
 10
161.327
 11
161.542
 20
-6.166
 21
-5.795
  0
LINE
  8
0
 10
161.542
 11
161.828
 20
-5.795
 21
-5.477
  0
LINE
  8
0
 10
161.828
 11
162.175
 20
-5.477
 21
-5.225
  0
LINE
  8
0
 10
162.175
 11
162.567
 20
-5.225
 21
-5.05
  0
LINE
  8
0
 10
162.567
 11
162.986
 20
-5.05
 21
-4.961
  0
LINE
  8
0
 10
162.986
 11
163.414
 20
-4.961
 21
-4.961
  0
LINE
  8
0
 10
163.414
 11
163.833
 20
-4.961
 21
-5.05
  0
LINE
  8
0
 10
163.833
 11
164.225
 20
-5.05
 21
-5.225
  0
LINE
  8
0
 10
164.225
 11
164.572
 20
-5.225
 21
-5.477
  0
LINE
  8
0
 10
164.572
 11
164.858
 20
-5.477
 21
-5.795
  0
LINE
  8
0
 10
164.858
 11
165.073
 20
-5.795
 21
-6.166
  0
LINE
  8
0
 10
165.073
 11
165.205
 20
-6.166
 21
-6.574
  0
LINE
  8
0
 10
165.205
 11
165.25
 20
-6.574
 21
-7
  0
LINE
  8
0
 10
165.25
 11
165.25
 20
-7
 21
-9
  0
LINE
  8
0
 10
165.25
 11
165.205
 20
-9
 21
-9.426
  0
LINE
  8
0
 10
165.205
 11
165.073
 20
-9.426
 21
-9.834
  0
LINE
  8
0
 10
165.073
 11
164.858
 20
-9.834
 21
-10.205
  0
LINE
  8
0
 10
164.858
 11
164.572
 20
-10.205
 21
-10.523
  0
LINE
  8
0
 10
164.572
 11
164.225
 20
-10.523
 21
-10.775
  0
LINE
  8
0
 10
164.225
 11
163.833
 20
-10.775
 21
-10.95
  0
LINE
  8
0
 10
163.833
 11
163.414
 20
-10.95
 21
-11.039
  0
LINE
  8
0
 10
163.414
 11
162.986
 20
-11.039
 21
-11.039
  0
LINE
  8
0
 10
162.986
 11
162.567
 20
-11.039
 21
-10.95
  0
LINE
  8
0
 10
162.567
 11
162.175
 20
-10.95
 21
-10.775
  0
LINE
  8
0
 10
162.175
 11
161.828
 20
-10.775
 21
-10.523
  0
LINE
  8
0
 10
161.828
 11
161.542
 20
-10.523
 21
-10.205
  0
LINE
  8
0
 10
161.542
 11
161.327
 20
-10.205
 21
-9.834
  0
LINE
  8
0
 10
161.327
 11
161.195
 20
-9.834
 21
-9.426
  0
LINE
  8
0
 10
161.195
 11
161.15
 20
-9.426
 21
-9
  0
LINE
  8
0
 10
195.2
 11
195.2
 20
-202.7
 21
-200.7
  0
LINE
  8
0
 10
195.2
 11
195.245
 20
-200.7
 21
-200.274
  0
LINE
  8
0
 10
195.245
 11
195.377
 20
-200.274
 21
-199.866
  0
LINE
  8
0
 10
195.377
 11
195.592
 20
-199.866
 21
-199.495
  0
LINE
  8
0
 10
195.592
 11
195.878
 20
-199.495
 21
-199.177
  0
LINE
  8
0
 10
195.878
 11
196.225
 20
-199.177
 21
-198.925
  0
LINE
  8
0
 10
196.225
 11
196.617
 20
-198.925
 21
-198.75
  0
LINE
  8
0
 10
196.617
 11
197.036
 20
-198.75
 21
-198.661
  0
LINE
  8
0
 10
197.036
 11
197.464
 20
-198.661
 21
-198.661
  0
LINE
  8
0
 10
197.464
 11
197.883
 20
-198.661
 21
-198.75
  0
LINE
  8
0
 10
197.883
 11
198.275
 20
-198.75
 21
-198.925
  0
LINE
  8
0
 10
198.275
 11
198.622
 20
-198.925
 21
-199.177
  0
LINE
  8
0
 10
198.622
 11
198.908
 20
-199.177
 21
-199.495
  0
LINE
  8
0
 10
198.908
 11
199.123
 20
-199.495
 21
-199.866
  0
LINE
  8
0
 10
199.123
 11
199.255
 20
-199.866
 21
-200.274
  0
LINE
  8
0
 10
199.255
 11
199.3
 20
-200.274
 21
-200.7
  0
LINE
  8
0
 10
199.3
 11
199.3
 20
-200.7
 21
-202.7
  0
LINE
  8
0
 10
199.3
 11
199.255
 20
-202.7
 21
-203.126
  0
LINE
  8
0
 10
199.255
 11
199.123
 20
-203.126
 21
-203.534
  0
LINE
  8
0
 10
199.123
 11
198.908
 20
-203.534
 21
-203.905
  0
LINE
  8
0
 10
198.908
 11
198.622
 20
-203.905
 21
-204.223
  0
LINE
  8
0
 10
198.622
 11
198.275
 20
-204.223
 21
-204.475
  0
LINE
  8
0
 10
198.275
 11
197.883
 20
-204.475
 21
-204.65
  0
LINE
  8
0
 10
197.883
 11
197.464
 20
-204.65
 21
-204.739
  0
LINE
  8
0
 10
197.464
 11
197.036
 20
-204.739
 21
-204.739
  0
LINE
  8
0
 10
197.036
 11
196.617
 20
-204.739
 21
-204.65
  0
LINE
  8
0
 10
196.617
 11
196.225
 20
-204.65
 21
-204.475
  0
LINE
  8
0
 10
196.225
 11
195.878
 20
-204.475
 21
-204.223
  0
LINE
  8
0
 10
195.878
 11
195.592
 20
-204.223
 21
-203.905
  0
LINE
  8
0
 10
195.592
 11
195.377
 20
-203.905
 21
-203.534
  0
LINE
  8
0
 10
195.377
 11
195.245
 20
-203.534
 21
-203.126
  0
LINE
  8
0
 10
195.245
 11
195.2
 20
-203.126
 21
-202.7
  0
LINE
  8
0
 10
0.5
 11
0.5
 20
-280.5
 21
-0.5
  0
LINE
  8
0
 10
0.5
 11
203.5
 20
-0.5
 21
-0.5
  0
LINE
  8
0
 10
203.5
 11
203.5
 20
-0.5
 21
-280.5
  0
LINE
  8
0
 10
203.5
 11
0.5
 20
-280.5
 21
-280.5
  0
LINE
  8
0
 10
195.2
 11
195.2
 20
-80.3
 21
-78.3
  0
LINE
  8
0
 10
195.2
 11
195.245
 20
-78.3
 21
-77.874
  0
LINE
  8
0
 10
195.245
 11
195.377
 20
-77.874
 21
-77.466
  0
LINE
  8
0
 10
195.377
 11
195.592
 20
-77.466
 21
-77.095
  0
LINE
  8
0
 10
195.592
 11
195.878
 20
-77.095
 21
-76.777
  0
LINE
  8
0
 10
195.878
 11
196.225
 20
-76.777
 21
-76.525
  0
LINE
  8
0
 10
196.225
 11
196.617
 20
-76.525
 21
-76.35
  0
LINE
  8
0
 10
196.617
 11
197.036
 20
-76.35
 21
-76.261
  0
LINE
  8
0
 10
197.036
 11
197.464
 20
-76.261
 21
-76.261
  0
LINE
  8
0
 10
197.464
 11
197.883
 20
-76.261
 21
-76.35
  0
LINE
  8
0
 10
197.883
 11
198.275
 20
-76.35
 21
-76.525
  0
LINE
  8
0
 10
198.275
 11
198.622
 20
-76.525
 21
-76.777
  0
LINE
  8
0
 10
198.622
 11
198.908
 20
-76.777
 21
-77.095
  0
LINE
  8
0
 10
198.908
 11
199.123
 20
-77.095
 21
-77.466
  0
LINE
  8
0
 10
199.123
 11
199.255
 20
-77.466
 21
-77.874
  0
LINE
  8
0
 10
199.255
 11
199.3
 20
-77.874
 21
-78.3
  0
LINE
  8
0
 10
199.3
 11
199.3
 20
-78.3
 21
-80.3
  0
LINE
  8
0
 10
199.3
 11
199.255
 20
-80.3
 21
-80.726
  0
LINE
  8
0
 10
199.255
 11
199.123
 20
-80.726
 21
-81.134
  0
LINE
  8
0
 10
199.123
 11
198.908
 20
-81.134
 21
-81.505
  0
LINE
  8
0
 10
198.908
 11
198.622
 20
-81.505
 21
-81.823
  0
LINE
  8
0
 10
198.622
 11
198.275
 20
-81.823
 21
-82.075
  0
LINE
  8
0
 10
198.275
 11
197.883
 20
-82.075
 21
-82.25
  0
LINE
  8
0
 10
197.883
 11
197.464
 20
-82.25
 21
-82.339
  0
LINE
  8
0
 10
197.464
 11
197.036
 20
-82.339
 21
-82.339
  0
LINE
  8
0
 10
197.036
 11
196.617
 20
-82.339
 21
-82.25
  0
LINE
  8
0
 10
196.617
 11
196.225
 20
-82.25
 21
-82.075
  0
LINE
  8
0
 10
196.225
 11
195.878
 20
-82.075
 21
-81.823
  0
LINE
  8
0
 10
195.878
 11
195.592
 20
-81.823
 21
-81.505
  0
LINE
  8
0
 10
195.592
 11
195.377
 20
-81.505
 21
-81.134
  0
LINE
  8
0
 10
195.377
 11
195.245
 20
-81.134
 21
-80.726
  0
LINE
  8
0
 10
195.245
 11
195.2
 20
-80.726
 21
-80.3
  0
ENDSEC
  0
SECTION
  2
OBJECTS
  0
DICTIONARY
  0
ENDSEC
  0
EOF
