  0
SECTION
  2
BLOCKS
  0
ENDSEC
  0
SECTION
  2
ENTITIES
  0
LINE
  8
0
 10
0
 11
0
 20
1.27
 21
8.73
  0
LINE
  8
0
 10
0
 11
9.2
 20
8.73
 21
8.73
  0
LINE
  8
0
 10
9.2
 11
9.2
 20
8.73
 21
1.27
  0
LINE
  8
0
 10
9.2
 11
0
 20
1.27
 21
1.27
  0
LINE
  8
0
 10
1.9
 11
2.034
 20
3.135
 21
3.546
  0
LINE
  8
0
 10
2.034
 11
2.384
 20
3.546
 21
3.801
  0
LINE
  8
0
 10
2.384
 11
2.816
 20
3.801
 21
3.801
  0
LINE
  8
0
 10
2.816
 11
3.166
 20
3.801
 21
3.546
  0
LINE
  8
0
 10
3.166
 11
3.3
 20
3.546
 21
3.135
  0
LINE
  8
0
 10
3.3
 11
3.166
 20
3.135
 21
2.724
  0
LINE
  8
0
 10
3.166
 11
2.816
 20
2.724
 21
2.469
  0
LINE
  8
0
 10
2.816
 11
2.384
 20
2.469
 21
2.469
  0
LINE
  8
0
 10
2.384
 11
2.034
 20
2.469
 21
2.724
  0
LINE
  8
0
 10
2.034
 11
1.9
 20
2.724
 21
3.135
  0
LINE
  8
0
 10
1.9
 11
2.034
 20
6.865
 21
7.276
  0
LINE
  8
0
 10
2.034
 11
2.384
 20
7.276
 21
7.531
  0
LINE
  8
0
 10
2.384
 11
2.816
 20
7.531
 21
7.531
  0
LINE
  8
0
 10
2.816
 11
3.166
 20
7.531
 21
7.276
  0
LINE
  8
0
 10
3.166
 11
3.3
 20
7.276
 21
6.865
  0
LINE
  8
0
 10
3.3
 11
3.166
 20
6.865
 21
6.454
  0
LINE
  8
0
 10
3.166
 11
2.816
 20
6.454
 21
6.199
  0
LINE
  8
0
 10
2.816
 11
2.384
 20
6.199
 21
6.199
  0
LINE
  8
0
 10
2.384
 11
2.034
 20
6.199
 21
6.454
  0
LINE
  8
0
 10
2.034
 11
1.9
 20
6.454
 21
6.865
  0
LINE
  8
0
 10
5.9
 11
6.034
 20
3.135
 21
3.546
  0
LINE
  8
0
 10
6.034
 11
6.384
 20
3.546
 21
3.801
  0
LINE
  8
0
 10
6.384
 11
6.815
 20
3.801
 21
3.801
  0
LINE
  8
0
 10
6.815
 11
7.166
 20
3.801
 21
3.546
  0
LINE
  8
0
 10
7.166
 11
7.3
 20
3.546
 21
3.135
  0
LINE
  8
0
 10
7.3
 11
7.166
 20
3.135
 21
2.724
  0
LINE
  8
0
 10
7.166
 11
6.816
 20
2.724
 21
2.469
  0
LINE
  8
0
 10
6.816
 11
6.384
 20
2.469
 21
2.469
  0
LINE
  8
0
 10
6.384
 11
6.034
 20
2.469
 21
2.724
  0
LINE
  8
0
 10
6.034
 11
5.9
 20
2.724
 21
3.135
  0
LINE
  8
0
 10
5.9
 11
6.034
 20
6.865
 21
7.276
  0
LINE
  8
0
 10
6.034
 11
6.384
 20
7.276
 21
7.531
  0
LINE
  8
0
 10
6.384
 11
6.816
 20
7.531
 21
7.531
  0
LINE
  8
0
 10
6.816
 11
7.166
 20
7.531
 21
7.276
  0
LINE
  8
0
 10
7.166
 11
7.3
 20
7.276
 21
6.865
  0
LINE
  8
0
 10
7.3
 11
7.166
 20
6.865
 21
6.454
  0
LINE
  8
0
 10
7.166
 11
6.816
 20
6.454
 21
6.199
  0
LINE
  8
0
 10
6.816
 11
6.384
 20
6.199
 21
6.199
  0
LINE
  8
0
 10
6.384
 11
6.034
 20
6.199
 21
6.454
  0
LINE
  8
0
 10
6.034
 11
5.9
 20
6.454
 21
6.865
  0
ENDSEC
  0
SECTION
  2
OBJECTS
  0
DICTIONARY
  0
ENDSEC
  0
EOF
